<svg width="20" height="20" viewBox="0 0 20 20" fill="none" xmlns="http://www.w3.org/2000/svg">
<path d="M4.168 17V15.362H5.248V14.138H6.004L6.688 12.914V7.442L6.004 6.218H5.248V4.058H7.48V4.58H8.56V4.13H11.458V4.58H12.538V4.058H14.77V6.218H13.996L13.33 7.442V12.914L13.996 14.138H14.77V15.362H15.85V17H4.168ZM5.788 5.804H14.23V5.426H5.788V5.804ZM6.868 6.848H13.15L13.366 6.47H6.652L6.868 6.848ZM6.598 13.958H13.42L13.204 13.58H6.814L6.598 13.958ZM5.788 15.182H14.23V14.804H5.788V15.182ZM4.708 16.406H15.31V16.028H4.708V16.406Z" fill="white"/>
</svg>
