<svg width="20" height="20" viewBox="0 0 20 20" fill="none" xmlns="http://www.w3.org/2000/svg">
<path d="M4.168 17V15.362H5.248V14.138H6.004L6.688 12.914V7.442L6.004 6.218H5.248V4.058H7.48V4.58H8.56V4.13H11.458V4.58H12.538V4.058H14.77V6.218H13.996L13.33 7.442V12.914L13.996 14.138H14.77V15.362H15.85V17H4.168ZM6.022 5.714H13.996V4.652H13.006V5.174H10.99V4.724H9.028V5.174H7.012V4.652H6.022V5.714ZM7.21 6.938H12.844L13.186 6.308H6.832L7.21 6.938ZM7.462 12.824H12.556V7.532H7.462V12.824ZM6.832 14.048H13.186L12.826 13.418H7.174L6.832 14.048ZM6.022 15.272H13.996V14.642H6.022V15.272ZM4.942 16.496H15.076V15.866H4.942V16.496Z" fill="white"/>
</svg>
