<svg width="20" height="20" viewBox="0 0 20 20" fill="none" xmlns="http://www.w3.org/2000/svg">
<rect width="20" height="20" fill="#589A4A"/>
<circle cx="5.25" cy="0.25" r="0.25" fill="black"/>
<circle cx="7.25" cy="0.25" r="0.25" fill="black"/>
<circle cx="6.25" cy="1.25" r="0.25" fill="black"/>
<circle cx="9.25" cy="0.25" r="0.25" fill="black"/>
<circle cx="8.25" cy="1.25" r="0.25" fill="black"/>
<circle cx="12.25" cy="1.25" r="0.25" fill="black"/>
<circle cx="13.25" cy="0.25" r="0.25" fill="black"/>
<circle cx="14.25" cy="1.25" r="0.25" fill="black"/>
<circle cx="10.25" cy="1.25" r="0.25" fill="black"/>
<circle cx="11.25" cy="0.25" r="0.25" fill="black"/>
<circle cx="11.25" cy="0.25" r="0.25" fill="black"/>
<circle cx="5.25" cy="2.25" r="0.25" fill="black"/>
<circle cx="7.25" cy="2.25" r="0.25" fill="black"/>
<circle cx="6.25" cy="3.25" r="0.25" fill="black"/>
<circle cx="9.25" cy="2.25" r="0.25" fill="black"/>
<circle cx="8.25" cy="3.25" r="0.25" fill="black"/>
<circle cx="12.25" cy="3.25" r="0.25" fill="black"/>
<circle cx="13.25" cy="2.25" r="0.25" fill="black"/>
<circle cx="14.25" cy="3.25" r="0.25" fill="black"/>
<circle cx="10.25" cy="3.25" r="0.25" fill="black"/>
<circle cx="11.25" cy="2.25" r="0.25" fill="black"/>
<circle cx="5.25" cy="4.25" r="0.25" fill="black"/>
<circle cx="7.25" cy="4.25" r="0.25" fill="black"/>
<circle cx="6.25" cy="5.25" r="0.25" fill="black"/>
<circle cx="9.25" cy="4.25" r="0.25" fill="black"/>
<circle cx="8.25" cy="5.25" r="0.25" fill="black"/>
<circle cx="12.25" cy="5.25" r="0.25" fill="black"/>
<circle cx="13.25" cy="4.25" r="0.25" fill="black"/>
<circle cx="14.25" cy="5.25" r="0.25" fill="black"/>
<circle cx="10.25" cy="5.25" r="0.25" fill="black"/>
<circle cx="11.25" cy="4.25" r="0.25" fill="black"/>
<circle cx="11.25" cy="4.25" r="0.25" fill="black"/>
<circle cx="5.25" cy="6.25" r="0.25" fill="black"/>
<circle cx="7.25" cy="6.25" r="0.25" fill="black"/>
<circle cx="6.25" cy="7.25" r="0.25" fill="black"/>
<circle cx="9.25" cy="6.25" r="0.25" fill="black"/>
<circle cx="8.25" cy="7.25" r="0.25" fill="black"/>
<circle cx="12.25" cy="7.25" r="0.25" fill="black"/>
<circle cx="13.25" cy="6.25" r="0.25" fill="black"/>
<circle cx="14.25" cy="7.25" r="0.25" fill="black"/>
<circle cx="10.25" cy="7.25" r="0.25" fill="black"/>
<circle cx="11.25" cy="6.25" r="0.25" fill="black"/>
<circle cx="5.25" cy="8.25" r="0.25" fill="black"/>
<circle cx="7.25" cy="8.25" r="0.25" fill="black"/>
<circle cx="6.25" cy="9.25" r="0.25" fill="black"/>
<circle cx="9.25" cy="8.25" r="0.25" fill="black"/>
<circle cx="8.25" cy="9.25" r="0.25" fill="black"/>
<circle cx="12.25" cy="9.25" r="0.25" fill="black"/>
<circle cx="13.25" cy="8.25" r="0.25" fill="black"/>
<circle cx="14.25" cy="9.25" r="0.25" fill="black"/>
<circle cx="10.25" cy="9.25" r="0.25" fill="black"/>
<circle cx="11.25" cy="8.25" r="0.25" fill="black"/>
<circle cx="11.25" cy="8.25" r="0.25" fill="black"/>
<circle cx="5.25" cy="10.25" r="0.25" fill="black"/>
<circle cx="7.25" cy="10.25" r="0.25" fill="black"/>
<circle cx="6.25" cy="11.25" r="0.25" fill="black"/>
<circle cx="9.25" cy="10.25" r="0.25" fill="black"/>
<circle cx="8.25" cy="11.25" r="0.25" fill="black"/>
<circle cx="12.25" cy="11.25" r="0.25" fill="black"/>
<circle cx="13.25" cy="10.25" r="0.25" fill="black"/>
<circle cx="14.25" cy="11.25" r="0.25" fill="black"/>
<circle cx="10.25" cy="11.25" r="0.25" fill="black"/>
<circle cx="11.25" cy="10.25" r="0.25" fill="black"/>
<circle cx="5.25" cy="12.25" r="0.25" fill="black"/>
<circle cx="7.25" cy="12.25" r="0.25" fill="black"/>
<circle cx="6.25" cy="13.25" r="0.25" fill="black"/>
<circle cx="9.25" cy="12.25" r="0.25" fill="black"/>
<circle cx="8.25" cy="13.25" r="0.25" fill="black"/>
<circle cx="12.25" cy="13.25" r="0.25" fill="black"/>
<circle cx="13.25" cy="12.25" r="0.25" fill="black"/>
<circle cx="14.25" cy="13.25" r="0.25" fill="black"/>
<circle cx="10.25" cy="13.25" r="0.25" fill="black"/>
<circle cx="11.25" cy="12.25" r="0.25" fill="black"/>
<circle cx="11.25" cy="12.25" r="0.25" fill="black"/>
<circle cx="5.25" cy="14.25" r="0.25" fill="black"/>
<circle cx="7.25" cy="14.25" r="0.25" fill="black"/>
<circle cx="6.25" cy="15.25" r="0.25" fill="black"/>
<circle cx="9.25" cy="14.25" r="0.25" fill="black"/>
<circle cx="8.25" cy="15.25" r="0.25" fill="black"/>
<circle cx="12.25" cy="15.25" r="0.25" fill="black"/>
<circle cx="13.25" cy="14.25" r="0.25" fill="black"/>
<circle cx="14.25" cy="15.25" r="0.25" fill="black"/>
<circle cx="10.25" cy="15.25" r="0.25" fill="black"/>
<circle cx="11.25" cy="14.25" r="0.25" fill="black"/>
<circle cx="5.25" cy="16.25" r="0.25" fill="black"/>
<circle cx="7.25" cy="16.25" r="0.25" fill="black"/>
<circle cx="6.25" cy="17.25" r="0.25" fill="black"/>
<circle cx="9.25" cy="16.25" r="0.25" fill="black"/>
<circle cx="8.25" cy="17.25" r="0.25" fill="black"/>
<circle cx="12.25" cy="17.25" r="0.25" fill="black"/>
<circle cx="13.25" cy="16.25" r="0.25" fill="black"/>
<circle cx="14.25" cy="17.25" r="0.25" fill="black"/>
<circle cx="10.25" cy="17.25" r="0.25" fill="black"/>
<circle cx="11.25" cy="16.25" r="0.25" fill="black"/>
<circle cx="11.25" cy="16.25" r="0.25" fill="black"/>
<circle cx="5.25" cy="18.25" r="0.25" fill="black"/>
<circle cx="7.25" cy="18.25" r="0.25" fill="black"/>
<circle cx="9.25" cy="18.25" r="0.25" fill="black"/>
<circle cx="13.25" cy="18.25" r="0.25" fill="black"/>
<circle cx="11.25" cy="18.25" r="0.25" fill="black"/>
</svg>
