<svg width="76" height="100" viewBox="0 0 76 100" fill="none" xmlns="http://www.w3.org/2000/svg">
<mask id="mask0_148_201119" style="mask-type:alpha" maskUnits="userSpaceOnUse" x="0" y="0" width="76" height="100">
<rect x="0.5" width="75" height="100" fill="#D9D9D9"/>
</mask>
<g mask="url(#mask0_148_201119)">
<circle cx="25.5" cy="7.5" r="2.5" fill="white"/>
<circle cx="25.5" cy="7.5" r="2.5" fill="white"/>
<circle cx="33" cy="7.5" r="2.5" fill="white"/>
<circle cx="33" cy="7.5" r="2.5" fill="white"/>
<circle cx="40.5" cy="7.5" r="2.5" fill="white"/>
<circle cx="40.5" cy="7.5" r="2.5" fill="white"/>
<circle cx="18" cy="7.5" r="2.5" fill="white"/>
<circle cx="18" cy="7.5" r="2.5" fill="white"/>
<circle cx="36.75" cy="12.5" r="2.5" fill="white"/>
<circle cx="36.75" cy="12.5" r="2.5" fill="white"/>
<circle cx="44.25" cy="12.5" r="2.5" fill="white"/>
<circle cx="44.25" cy="12.5" r="2.5" fill="white"/>
<circle cx="21.75" cy="12.5" r="2.5" fill="white"/>
<circle cx="21.75" cy="12.5" r="2.5" fill="white"/>
<circle cx="55.5" cy="7.5" r="2.5" fill="white"/>
<circle cx="55.5" cy="7.5" r="2.5" fill="white"/>
<circle cx="29.25" cy="12.5" r="2.5" fill="white"/>
<circle cx="29.25" cy="12.5" r="2.5" fill="white"/>
<circle cx="48" cy="7.5" r="2.5" fill="white"/>
<circle cx="48" cy="7.5" r="2.5" fill="white"/>
<circle cx="51.75" cy="12.5" r="2.5" fill="white"/>
<circle cx="51.75" cy="12.5" r="2.5" fill="white"/>
<circle cx="25.5" cy="17.5" r="2.5" fill="white"/>
<circle cx="25.5" cy="17.5" r="2.5" fill="white"/>
<circle cx="33" cy="17.5" r="2.5" fill="white"/>
<circle cx="33" cy="17.5" r="2.5" fill="white"/>
<circle cx="40.5" cy="17.5" r="2.5" fill="white"/>
<circle cx="40.5" cy="17.5" r="2.5" fill="white"/>
<circle cx="18" cy="17.5" r="2.5" fill="white"/>
<circle cx="18" cy="17.5" r="2.5" fill="white"/>
<circle cx="36.75" cy="22.5" r="2.5" fill="white"/>
<circle cx="36.75" cy="22.5" r="2.5" fill="white"/>
<circle cx="44.25" cy="22.5" r="2.5" fill="white"/>
<circle cx="44.25" cy="22.5" r="2.5" fill="white"/>
<circle cx="21.75" cy="22.5" r="2.5" fill="white"/>
<circle cx="21.75" cy="22.5" r="2.5" fill="white"/>
<circle cx="55.5" cy="17.5" r="2.5" fill="white"/>
<circle cx="55.5" cy="17.5" r="2.5" fill="white"/>
<circle cx="29.25" cy="22.5" r="2.5" fill="white"/>
<circle cx="29.25" cy="22.5" r="2.5" fill="white"/>
<circle cx="48" cy="17.5" r="2.5" fill="white"/>
<circle cx="48" cy="17.5" r="2.5" fill="white"/>
<circle cx="51.75" cy="22.5" r="2.5" fill="white"/>
<circle cx="51.75" cy="22.5" r="2.5" fill="white"/>
<circle cx="25.5" cy="27.5" r="2.5" fill="white"/>
<circle cx="25.5" cy="27.5" r="2.5" fill="white"/>
<circle cx="33" cy="27.5" r="2.5" fill="white"/>
<circle cx="33" cy="27.5" r="2.5" fill="white"/>
<circle cx="40.5" cy="27.5" r="2.5" fill="white"/>
<circle cx="40.5" cy="27.5" r="2.5" fill="white"/>
<circle cx="18" cy="27.5" r="2.5" fill="white"/>
<circle cx="18" cy="27.5" r="2.5" fill="white"/>
<circle cx="36.75" cy="32.5" r="2.5" fill="white"/>
<circle cx="36.75" cy="32.5" r="2.5" fill="white"/>
<circle cx="44.25" cy="32.5" r="2.5" fill="white"/>
<circle cx="44.25" cy="32.5" r="2.5" fill="white"/>
<circle cx="21.75" cy="32.5" r="2.5" fill="white"/>
<circle cx="21.75" cy="32.5" r="2.5" fill="white"/>
<circle cx="55.5" cy="27.5" r="2.5" fill="white"/>
<circle cx="55.5" cy="27.5" r="2.5" fill="white"/>
<circle cx="29.25" cy="32.5" r="2.5" fill="white"/>
<circle cx="29.25" cy="32.5" r="2.5" fill="white"/>
<circle cx="48" cy="27.5" r="2.5" fill="white"/>
<circle cx="48" cy="27.5" r="2.5" fill="white"/>
<circle cx="51.75" cy="32.5" r="2.5" fill="white"/>
<circle cx="51.75" cy="32.5" r="2.5" fill="white"/>
<circle cx="25.5" cy="37.5" r="2.5" fill="white"/>
<circle cx="25.5" cy="37.5" r="2.5" fill="white"/>
<circle cx="33" cy="37.5" r="2.5" fill="white"/>
<circle cx="33" cy="37.5" r="2.5" fill="white"/>
<circle cx="40.5" cy="37.5" r="2.5" fill="white"/>
<circle cx="40.5" cy="37.5" r="2.5" fill="white"/>
<circle cx="18" cy="37.5" r="2.5" fill="white"/>
<circle cx="18" cy="37.5" r="2.5" fill="white"/>
<circle cx="36.75" cy="42.5" r="2.5" fill="white"/>
<circle cx="36.75" cy="42.5" r="2.5" fill="white"/>
<circle cx="44.25" cy="42.5" r="2.5" fill="white"/>
<circle cx="44.25" cy="42.5" r="2.5" fill="white"/>
<circle cx="21.75" cy="42.5" r="2.5" fill="white"/>
<circle cx="21.75" cy="42.5" r="2.5" fill="white"/>
<circle cx="55.5" cy="37.5" r="2.5" fill="white"/>
<circle cx="55.5" cy="37.5" r="2.5" fill="white"/>
<circle cx="29.25" cy="42.5" r="2.5" fill="white"/>
<circle cx="29.25" cy="42.5" r="2.5" fill="white"/>
<circle cx="48" cy="37.5" r="2.5" fill="white"/>
<circle cx="48" cy="37.5" r="2.5" fill="white"/>
<circle cx="51.75" cy="42.5" r="2.5" fill="white"/>
<circle cx="51.75" cy="42.5" r="2.5" fill="white"/>
<circle cx="25.5" cy="47.5" r="2.5" fill="white"/>
<circle cx="25.5" cy="47.5" r="2.5" fill="white"/>
<circle cx="33" cy="47.5" r="2.5" fill="white"/>
<circle cx="33" cy="47.5" r="2.5" fill="white"/>
<circle cx="40.5" cy="47.5" r="2.5" fill="white"/>
<circle cx="40.5" cy="47.5" r="2.5" fill="white"/>
<circle cx="18" cy="47.5" r="2.5" fill="white"/>
<circle cx="18" cy="47.5" r="2.5" fill="white"/>
<circle cx="36.75" cy="52.5" r="2.5" fill="white"/>
<circle cx="36.75" cy="52.5" r="2.5" fill="white"/>
<circle cx="44.25" cy="52.5" r="2.5" fill="white"/>
<circle cx="44.25" cy="52.5" r="2.5" fill="white"/>
<circle cx="21.75" cy="52.5" r="2.5" fill="white"/>
<circle cx="21.75" cy="52.5" r="2.5" fill="white"/>
<circle cx="55.5" cy="47.5" r="2.5" fill="white"/>
<circle cx="55.5" cy="47.5" r="2.5" fill="white"/>
<circle cx="29.25" cy="52.5" r="2.5" fill="white"/>
<circle cx="29.25" cy="52.5" r="2.5" fill="white"/>
<circle cx="48" cy="47.5" r="2.5" fill="white"/>
<circle cx="48" cy="47.5" r="2.5" fill="white"/>
<circle cx="51.75" cy="52.5" r="2.5" fill="white"/>
<circle cx="51.75" cy="52.5" r="2.5" fill="white"/>
<circle cx="25.5" cy="57.5" r="2.5" fill="white"/>
<circle cx="25.5" cy="57.5" r="2.5" fill="white"/>
<circle cx="33" cy="57.5" r="2.5" fill="white"/>
<circle cx="33" cy="57.5" r="2.5" fill="white"/>
<circle cx="40.5" cy="57.5" r="2.5" fill="white"/>
<circle cx="40.5" cy="57.5" r="2.5" fill="white"/>
<circle cx="18" cy="57.5" r="2.5" fill="white"/>
<circle cx="18" cy="57.5" r="2.5" fill="white"/>
<circle cx="36.75" cy="62.5" r="2.5" fill="white"/>
<circle cx="36.75" cy="62.5" r="2.5" fill="white"/>
<circle cx="44.25" cy="62.5" r="2.5" fill="white"/>
<circle cx="44.25" cy="62.5" r="2.5" fill="white"/>
<circle cx="21.75" cy="62.5" r="2.5" fill="white"/>
<circle cx="21.75" cy="62.5" r="2.5" fill="white"/>
<circle cx="55.5" cy="57.5" r="2.5" fill="white"/>
<circle cx="55.5" cy="57.5" r="2.5" fill="white"/>
<circle cx="29.25" cy="62.5" r="2.5" fill="white"/>
<circle cx="29.25" cy="62.5" r="2.5" fill="white"/>
<circle cx="48" cy="57.5" r="2.5" fill="white"/>
<circle cx="48" cy="57.5" r="2.5" fill="white"/>
<circle cx="51.75" cy="62.5" r="2.5" fill="white"/>
<circle cx="51.75" cy="62.5" r="2.5" fill="white"/>
<circle cx="25.5" cy="67.5" r="2.5" fill="white"/>
<circle cx="25.5" cy="67.5" r="2.5" fill="white"/>
<circle cx="33" cy="67.5" r="2.5" fill="white"/>
<circle cx="33" cy="67.5" r="2.5" fill="white"/>
<circle cx="40.5" cy="67.5" r="2.5" fill="white"/>
<circle cx="40.5" cy="67.5" r="2.5" fill="white"/>
<circle cx="18" cy="67.5" r="2.5" fill="white"/>
<circle cx="18" cy="67.5" r="2.5" fill="white"/>
<circle cx="36.75" cy="72.5" r="2.5" fill="white"/>
<circle cx="36.75" cy="72.5" r="2.5" fill="white"/>
<circle cx="44.25" cy="72.5" r="2.5" fill="white"/>
<circle cx="44.25" cy="72.5" r="2.5" fill="white"/>
<circle cx="21.75" cy="72.5" r="2.5" fill="white"/>
<circle cx="21.75" cy="72.5" r="2.5" fill="white"/>
<circle cx="55.5" cy="67.5" r="2.5" fill="white"/>
<circle cx="55.5" cy="67.5" r="2.5" fill="white"/>
<circle cx="29.25" cy="72.5" r="2.5" fill="white"/>
<circle cx="29.25" cy="72.5" r="2.5" fill="white"/>
<circle cx="48" cy="67.5" r="2.5" fill="white"/>
<circle cx="48" cy="67.5" r="2.5" fill="white"/>
<circle cx="51.75" cy="72.5" r="2.5" fill="white"/>
<circle cx="51.75" cy="72.5" r="2.5" fill="white"/>
<circle cx="25.5" cy="77.5" r="2.5" fill="white"/>
<circle cx="25.5" cy="77.5" r="2.5" fill="white"/>
<circle cx="33" cy="77.5" r="2.5" fill="white"/>
<circle cx="33" cy="77.5" r="2.5" fill="white"/>
<circle cx="40.5" cy="77.5" r="2.5" fill="white"/>
<circle cx="40.5" cy="77.5" r="2.5" fill="white"/>
<circle cx="18" cy="77.5" r="2.5" fill="white"/>
<circle cx="18" cy="77.5" r="2.5" fill="white"/>
<circle cx="36.75" cy="82.5" r="2.5" fill="white"/>
<circle cx="36.75" cy="82.5" r="2.5" fill="white"/>
<circle cx="44.25" cy="82.5" r="2.5" fill="white"/>
<circle cx="44.25" cy="82.5" r="2.5" fill="white"/>
<circle cx="21.75" cy="82.5" r="2.5" fill="white"/>
<circle cx="21.75" cy="82.5" r="2.5" fill="white"/>
<circle cx="55.5" cy="77.5" r="2.5" fill="white"/>
<circle cx="55.5" cy="77.5" r="2.5" fill="white"/>
<circle cx="29.25" cy="82.5" r="2.5" fill="white"/>
<circle cx="29.25" cy="82.5" r="2.5" fill="white"/>
<circle cx="48" cy="77.5" r="2.5" fill="white"/>
<circle cx="48" cy="77.5" r="2.5" fill="white"/>
<circle cx="51.75" cy="82.5" r="2.5" fill="white"/>
<circle cx="51.75" cy="82.5" r="2.5" fill="white"/>
<circle cx="25.5" cy="87.5" r="2.5" fill="white"/>
<circle cx="25.5" cy="87.5" r="2.5" fill="white"/>
<circle cx="33" cy="87.5" r="2.5" fill="white"/>
<circle cx="33" cy="87.5" r="2.5" fill="white"/>
<circle cx="40.5" cy="87.5" r="2.5" fill="white"/>
<circle cx="40.5" cy="87.5" r="2.5" fill="white"/>
<circle cx="18" cy="87.5" r="2.5" fill="white"/>
<circle cx="18" cy="87.5" r="2.5" fill="white"/>
<circle cx="36.75" cy="92.5" r="2.5" fill="white"/>
<circle cx="36.75" cy="92.5" r="2.5" fill="white"/>
<circle cx="44.25" cy="92.5" r="2.5" fill="white"/>
<circle cx="44.25" cy="92.5" r="2.5" fill="white"/>
<circle cx="21.75" cy="92.5" r="2.5" fill="white"/>
<circle cx="21.75" cy="92.5" r="2.5" fill="white"/>
<circle cx="55.5" cy="87.5" r="2.5" fill="white"/>
<circle cx="55.5" cy="87.5" r="2.5" fill="white"/>
<circle cx="29.25" cy="92.5" r="2.5" fill="white"/>
<circle cx="29.25" cy="92.5" r="2.5" fill="white"/>
<circle cx="48" cy="87.5" r="2.5" fill="white"/>
<circle cx="48" cy="87.5" r="2.5" fill="white"/>
<circle cx="51.75" cy="92.5" r="2.5" fill="white"/>
<circle cx="51.75" cy="92.5" r="2.5" fill="white"/>
</g>
</svg>
