<svg width="20" height="20" viewBox="0 0 20 20" fill="none" xmlns="http://www.w3.org/2000/svg">
<mask id="mask0_137_94974" style="mask-type:alpha" maskUnits="userSpaceOnUse" x="0" y="0" width="20" height="20">
<rect width="20" height="20" fill="#D9D9D9"/>
</mask>
<g mask="url(#mask0_137_94974)">
<circle cx="6.5" cy="1.5" r="0.5" fill="white"/>
<circle cx="6.5" cy="1.5" r="0.5" fill="white"/>
<circle cx="8.5" cy="1.5" r="0.5" fill="white"/>
<circle cx="8.5" cy="1.5" r="0.5" fill="white"/>
<circle cx="10.5" cy="1.5" r="0.5" fill="white"/>
<circle cx="10.5" cy="1.5" r="0.5" fill="white"/>
<circle cx="4.5" cy="1.5" r="0.5" fill="white"/>
<circle cx="4.5" cy="1.5" r="0.5" fill="white"/>
<circle cx="9.5" cy="2.5" r="0.5" fill="white"/>
<circle cx="9.5" cy="2.5" r="0.5" fill="white"/>
<circle cx="11.5" cy="2.5" r="0.5" fill="white"/>
<circle cx="11.5" cy="2.5" r="0.5" fill="white"/>
<circle cx="5.5" cy="2.5" r="0.5" fill="white"/>
<circle cx="5.5" cy="2.5" r="0.5" fill="white"/>
<circle cx="14.5" cy="1.5" r="0.5" fill="white"/>
<circle cx="14.5" cy="1.5" r="0.5" fill="white"/>
<circle cx="7.5" cy="2.5" r="0.5" fill="white"/>
<circle cx="7.5" cy="2.5" r="0.5" fill="white"/>
<circle cx="12.5" cy="1.5" r="0.5" fill="white"/>
<circle cx="12.5" cy="1.5" r="0.5" fill="white"/>
<circle cx="13.5" cy="2.5" r="0.5" fill="white"/>
<circle cx="13.5" cy="2.5" r="0.5" fill="white"/>
<circle cx="6.5" cy="3.5" r="0.5" fill="white"/>
<circle cx="6.5" cy="3.5" r="0.5" fill="white"/>
<circle cx="8.5" cy="3.5" r="0.5" fill="white"/>
<circle cx="8.5" cy="3.5" r="0.5" fill="white"/>
<circle cx="10.5" cy="3.5" r="0.5" fill="white"/>
<circle cx="10.5" cy="3.5" r="0.5" fill="white"/>
<circle cx="4.5" cy="3.5" r="0.5" fill="white"/>
<circle cx="4.5" cy="3.5" r="0.5" fill="white"/>
<circle cx="9.5" cy="4.5" r="0.5" fill="white"/>
<circle cx="9.5" cy="4.5" r="0.5" fill="white"/>
<circle cx="11.5" cy="4.5" r="0.5" fill="white"/>
<circle cx="11.5" cy="4.5" r="0.5" fill="white"/>
<circle cx="5.5" cy="4.5" r="0.5" fill="white"/>
<circle cx="5.5" cy="4.5" r="0.5" fill="white"/>
<circle cx="14.5" cy="3.5" r="0.5" fill="white"/>
<circle cx="14.5" cy="3.5" r="0.5" fill="white"/>
<circle cx="7.5" cy="4.5" r="0.5" fill="white"/>
<circle cx="7.5" cy="4.5" r="0.5" fill="white"/>
<circle cx="12.5" cy="3.5" r="0.5" fill="white"/>
<circle cx="12.5" cy="3.5" r="0.5" fill="white"/>
<circle cx="13.5" cy="4.5" r="0.5" fill="white"/>
<circle cx="13.5" cy="4.5" r="0.5" fill="white"/>
<circle cx="6.5" cy="5.5" r="0.5" fill="white"/>
<circle cx="6.5" cy="5.5" r="0.5" fill="white"/>
<circle cx="8.5" cy="5.5" r="0.5" fill="white"/>
<circle cx="8.5" cy="5.5" r="0.5" fill="white"/>
<circle cx="10.5" cy="5.5" r="0.5" fill="white"/>
<circle cx="10.5" cy="5.5" r="0.5" fill="white"/>
<circle cx="4.5" cy="5.5" r="0.5" fill="white"/>
<circle cx="4.5" cy="5.5" r="0.5" fill="white"/>
<circle cx="9.5" cy="6.5" r="0.5" fill="white"/>
<circle cx="9.5" cy="6.5" r="0.5" fill="white"/>
<circle cx="11.5" cy="6.5" r="0.5" fill="white"/>
<circle cx="11.5" cy="6.5" r="0.5" fill="white"/>
<circle cx="5.5" cy="6.5" r="0.5" fill="white"/>
<circle cx="5.5" cy="6.5" r="0.5" fill="white"/>
<circle cx="14.5" cy="5.5" r="0.5" fill="white"/>
<circle cx="14.5" cy="5.5" r="0.5" fill="white"/>
<circle cx="7.5" cy="6.5" r="0.5" fill="white"/>
<circle cx="7.5" cy="6.5" r="0.5" fill="white"/>
<circle cx="12.5" cy="5.5" r="0.5" fill="white"/>
<circle cx="12.5" cy="5.5" r="0.5" fill="white"/>
<circle cx="13.5" cy="6.5" r="0.5" fill="white"/>
<circle cx="13.5" cy="6.5" r="0.5" fill="white"/>
<circle cx="6.5" cy="7.5" r="0.5" fill="white"/>
<circle cx="6.5" cy="7.5" r="0.5" fill="white"/>
<circle cx="8.5" cy="7.5" r="0.5" fill="white"/>
<circle cx="8.5" cy="7.5" r="0.5" fill="white"/>
<circle cx="10.5" cy="7.5" r="0.5" fill="white"/>
<circle cx="10.5" cy="7.5" r="0.5" fill="white"/>
<circle cx="4.5" cy="7.5" r="0.5" fill="white"/>
<circle cx="4.5" cy="7.5" r="0.5" fill="white"/>
<circle cx="9.5" cy="8.5" r="0.5" fill="white"/>
<circle cx="9.5" cy="8.5" r="0.5" fill="white"/>
<circle cx="11.5" cy="8.5" r="0.5" fill="white"/>
<circle cx="11.5" cy="8.5" r="0.5" fill="white"/>
<circle cx="5.5" cy="8.5" r="0.5" fill="white"/>
<circle cx="5.5" cy="8.5" r="0.5" fill="white"/>
<circle cx="14.5" cy="7.5" r="0.5" fill="white"/>
<circle cx="14.5" cy="7.5" r="0.5" fill="white"/>
<circle cx="7.5" cy="8.5" r="0.5" fill="white"/>
<circle cx="7.5" cy="8.5" r="0.5" fill="white"/>
<circle cx="12.5" cy="7.5" r="0.5" fill="white"/>
<circle cx="12.5" cy="7.5" r="0.5" fill="white"/>
<circle cx="13.5" cy="8.5" r="0.5" fill="white"/>
<circle cx="13.5" cy="8.5" r="0.5" fill="white"/>
<circle cx="6.5" cy="9.5" r="0.5" fill="white"/>
<circle cx="6.5" cy="9.5" r="0.5" fill="white"/>
<circle cx="8.5" cy="9.5" r="0.5" fill="white"/>
<circle cx="8.5" cy="9.5" r="0.5" fill="white"/>
<circle cx="10.5" cy="9.5" r="0.5" fill="white"/>
<circle cx="10.5" cy="9.5" r="0.5" fill="white"/>
<circle cx="4.5" cy="9.5" r="0.5" fill="white"/>
<circle cx="4.5" cy="9.5" r="0.5" fill="white"/>
<circle cx="9.5" cy="10.5" r="0.5" fill="white"/>
<circle cx="9.5" cy="10.5" r="0.5" fill="white"/>
<circle cx="11.5" cy="10.5" r="0.5" fill="white"/>
<circle cx="11.5" cy="10.5" r="0.5" fill="white"/>
<circle cx="5.5" cy="10.5" r="0.5" fill="white"/>
<circle cx="5.5" cy="10.5" r="0.5" fill="white"/>
<circle cx="14.5" cy="9.5" r="0.5" fill="white"/>
<circle cx="14.5" cy="9.5" r="0.5" fill="white"/>
<circle cx="7.5" cy="10.5" r="0.5" fill="white"/>
<circle cx="7.5" cy="10.5" r="0.5" fill="white"/>
<circle cx="12.5" cy="9.5" r="0.5" fill="white"/>
<circle cx="12.5" cy="9.5" r="0.5" fill="white"/>
<circle cx="13.5" cy="10.5" r="0.5" fill="white"/>
<circle cx="13.5" cy="10.5" r="0.5" fill="white"/>
<circle cx="6.5" cy="11.5" r="0.5" fill="white"/>
<circle cx="6.5" cy="11.5" r="0.5" fill="white"/>
<circle cx="8.5" cy="11.5" r="0.5" fill="white"/>
<circle cx="8.5" cy="11.5" r="0.5" fill="white"/>
<circle cx="10.5" cy="11.5" r="0.5" fill="white"/>
<circle cx="10.5" cy="11.5" r="0.5" fill="white"/>
<circle cx="4.5" cy="11.5" r="0.5" fill="white"/>
<circle cx="4.5" cy="11.5" r="0.5" fill="white"/>
<circle cx="9.5" cy="12.5" r="0.5" fill="white"/>
<circle cx="9.5" cy="12.5" r="0.5" fill="white"/>
<circle cx="11.5" cy="12.5" r="0.5" fill="white"/>
<circle cx="11.5" cy="12.5" r="0.5" fill="white"/>
<circle cx="5.5" cy="12.5" r="0.5" fill="white"/>
<circle cx="5.5" cy="12.5" r="0.5" fill="white"/>
<circle cx="14.5" cy="11.5" r="0.5" fill="white"/>
<circle cx="14.5" cy="11.5" r="0.5" fill="white"/>
<circle cx="7.5" cy="12.5" r="0.5" fill="white"/>
<circle cx="7.5" cy="12.5" r="0.5" fill="white"/>
<circle cx="12.5" cy="11.5" r="0.5" fill="white"/>
<circle cx="12.5" cy="11.5" r="0.5" fill="white"/>
<circle cx="13.5" cy="12.5" r="0.5" fill="white"/>
<circle cx="13.5" cy="12.5" r="0.5" fill="white"/>
<circle cx="6.5" cy="13.5" r="0.5" fill="white"/>
<circle cx="6.5" cy="13.5" r="0.5" fill="white"/>
<circle cx="8.5" cy="13.5" r="0.5" fill="white"/>
<circle cx="8.5" cy="13.5" r="0.5" fill="white"/>
<circle cx="10.5" cy="13.5" r="0.5" fill="white"/>
<circle cx="10.5" cy="13.5" r="0.5" fill="white"/>
<circle cx="4.5" cy="13.5" r="0.5" fill="white"/>
<circle cx="4.5" cy="13.5" r="0.5" fill="white"/>
<circle cx="9.5" cy="14.5" r="0.5" fill="white"/>
<circle cx="9.5" cy="14.5" r="0.5" fill="white"/>
<circle cx="11.5" cy="14.5" r="0.5" fill="white"/>
<circle cx="11.5" cy="14.5" r="0.5" fill="white"/>
<circle cx="5.5" cy="14.5" r="0.5" fill="white"/>
<circle cx="5.5" cy="14.5" r="0.5" fill="white"/>
<circle cx="14.5" cy="13.5" r="0.5" fill="white"/>
<circle cx="14.5" cy="13.5" r="0.5" fill="white"/>
<circle cx="7.5" cy="14.5" r="0.5" fill="white"/>
<circle cx="7.5" cy="14.5" r="0.5" fill="white"/>
<circle cx="12.5" cy="13.5" r="0.5" fill="white"/>
<circle cx="12.5" cy="13.5" r="0.5" fill="white"/>
<circle cx="13.5" cy="14.5" r="0.5" fill="white"/>
<circle cx="13.5" cy="14.5" r="0.5" fill="white"/>
<circle cx="6.5" cy="15.5" r="0.5" fill="white"/>
<circle cx="6.5" cy="15.5" r="0.5" fill="white"/>
<circle cx="8.5" cy="15.5" r="0.5" fill="white"/>
<circle cx="8.5" cy="15.5" r="0.5" fill="white"/>
<circle cx="10.5" cy="15.5" r="0.5" fill="white"/>
<circle cx="10.5" cy="15.5" r="0.5" fill="white"/>
<circle cx="4.5" cy="15.5" r="0.5" fill="white"/>
<circle cx="4.5" cy="15.5" r="0.5" fill="white"/>
<circle cx="9.5" cy="16.5" r="0.5" fill="white"/>
<circle cx="9.5" cy="16.5" r="0.5" fill="white"/>
<circle cx="11.5" cy="16.5" r="0.5" fill="white"/>
<circle cx="11.5" cy="16.5" r="0.5" fill="white"/>
<circle cx="5.5" cy="16.5" r="0.5" fill="white"/>
<circle cx="5.5" cy="16.5" r="0.5" fill="white"/>
<circle cx="14.5" cy="15.5" r="0.5" fill="white"/>
<circle cx="14.5" cy="15.5" r="0.5" fill="white"/>
<circle cx="7.5" cy="16.5" r="0.5" fill="white"/>
<circle cx="7.5" cy="16.5" r="0.5" fill="white"/>
<circle cx="12.5" cy="15.5" r="0.5" fill="white"/>
<circle cx="12.5" cy="15.5" r="0.5" fill="white"/>
<circle cx="13.5" cy="16.5" r="0.5" fill="white"/>
<circle cx="13.5" cy="16.5" r="0.5" fill="white"/>
<circle cx="6.5" cy="17.5" r="0.5" fill="white"/>
<circle cx="6.5" cy="17.5" r="0.5" fill="white"/>
<circle cx="8.5" cy="17.5" r="0.5" fill="white"/>
<circle cx="8.5" cy="17.5" r="0.5" fill="white"/>
<circle cx="10.5" cy="17.5" r="0.5" fill="white"/>
<circle cx="10.5" cy="17.5" r="0.5" fill="white"/>
<circle cx="4.5" cy="17.5" r="0.5" fill="white"/>
<circle cx="4.5" cy="17.5" r="0.5" fill="white"/>
<circle cx="9.5" cy="18.5" r="0.5" fill="white"/>
<circle cx="9.5" cy="18.5" r="0.5" fill="white"/>
<circle cx="11.5" cy="18.5" r="0.5" fill="white"/>
<circle cx="11.5" cy="18.5" r="0.5" fill="white"/>
<circle cx="5.5" cy="18.5" r="0.5" fill="white"/>
<circle cx="5.5" cy="18.5" r="0.5" fill="white"/>
<circle cx="14.5" cy="17.5" r="0.5" fill="white"/>
<circle cx="14.5" cy="17.5" r="0.5" fill="white"/>
<circle cx="7.5" cy="18.5" r="0.5" fill="white"/>
<circle cx="7.5" cy="18.5" r="0.5" fill="white"/>
<circle cx="12.5" cy="17.5" r="0.5" fill="white"/>
<circle cx="12.5" cy="17.5" r="0.5" fill="white"/>
<circle cx="13.5" cy="18.5" r="0.5" fill="white"/>
<circle cx="13.5" cy="18.5" r="0.5" fill="white"/>
</g>
</svg>
