<svg width="76" height="100" viewBox="0 0 76 100" fill="none" xmlns="http://www.w3.org/2000/svg">
<rect x="9.5" y="22" width="56" height="56" stroke="white" stroke-width="4"/>
<mask id="mask0_148_201249" style="mask-type:alpha" maskUnits="userSpaceOnUse" x="7" y="20" width="61" height="60">
<rect x="7.5" y="20" width="60" height="60" fill="#D9D9D9"/>
</mask>
<g mask="url(#mask0_148_201249)">
<path d="M-36.8391 78.5049L33.8742 7.79156" stroke="white" stroke-width="4" stroke-linecap="round"/>
<path d="M-23 80L47.7133 9.28668" stroke="white" stroke-width="4" stroke-linecap="round"/>
<path d="M-9 82L61.7133 11.2867" stroke="white" stroke-width="4" stroke-linecap="round"/>
<path d="M5 83L75.7133 12.2867" stroke="white" stroke-width="4" stroke-linecap="round"/>
<path d="M19 85L89.7133 14.2867" stroke="white" stroke-width="4" stroke-linecap="round"/>
<path d="M33 87L103.713 16.2867" stroke="white" stroke-width="4" stroke-linecap="round"/>
<path d="M47 87L117.713 16.2867" stroke="white" stroke-width="4" stroke-linecap="round"/>
<path d="M114.287 80.4133L43.5744 9.70001" stroke="white" stroke-width="4" stroke-linecap="round"/>
<path d="M100.448 81.9084L29.7353 11.1951" stroke="white" stroke-width="4" stroke-linecap="round"/>
<path d="M86.4478 83.9084L15.7355 13.1951" stroke="white" stroke-width="4" stroke-linecap="round"/>
<path d="M72.448 84.9084L1.73579 14.1951" stroke="white" stroke-width="4" stroke-linecap="round"/>
<path d="M58.4482 86.9084L-12.264 16.1951" stroke="white" stroke-width="4" stroke-linecap="round"/>
<path d="M44.4485 88.9084L-26.2637 18.1951" stroke="white" stroke-width="4" stroke-linecap="round"/>
<path d="M30.4487 88.9084L-40.2635 18.1951" stroke="white" stroke-width="4" stroke-linecap="round"/>
</g>
</svg>
