<svg width="288" height="400" viewBox="0 0 288 400" fill="none" xmlns="http://www.w3.org/2000/svg">
<rect x="16" y="64" width="271.421" height="271.421" stroke="white" stroke-width="8"/>
<line x1="242.83" y1="72.1713" x2="284.744" y2="114.085" stroke="white" stroke-width="8"/>
<line x1="20.8284" y1="288.374" x2="66.3685" y2="333.914" stroke="white" stroke-width="8"/>
<line x1="174.51" y1="70.1425" x2="286.279" y2="181.911" stroke="white" stroke-width="8"/>
<line x1="20.8284" y1="223.825" x2="132.597" y2="335.594" stroke="white" stroke-width="8"/>
<line x1="100.828" y1="72.1713" x2="282.452" y2="253.795" stroke="white" stroke-width="8"/>
<line x1="20.8877" y1="140.058" x2="208.917" y2="336.231" stroke="white" stroke-width="8"/>
<line x1="24.4612" y1="72.4313" x2="275.979" y2="323.949" stroke="white" stroke-width="8"/>
<line x1="4" y1="-4" x2="54.07" y2="-4" transform="matrix(-0.692132 0.721771 0.692132 0.721771 69.1143 73.0288)" stroke="white" stroke-width="8" stroke-linecap="square"/>
<line x1="4" y1="-4" x2="59.095" y2="-4" transform="matrix(-0.692132 0.721771 0.692132 0.721771 282 289.231)" stroke="white" stroke-width="8" stroke-linecap="square"/>
<line x1="4" y1="-4" x2="150.853" y2="-4" transform="matrix(-0.692132 0.721771 0.692132 0.721771 134.627 71)" stroke="white" stroke-width="8" stroke-linecap="square"/>
<line x1="4" y1="-4" x2="150.853" y2="-4" transform="matrix(-0.692132 0.721771 0.692132 0.721771 282 224.682)" stroke="white" stroke-width="8" stroke-linecap="square"/>
<line x1="4" y1="-4" x2="247.636" y2="-4" transform="matrix(-0.692132 0.721771 0.692132 0.721771 205.286 73.0288)" stroke="white" stroke-width="8" stroke-linecap="square"/>
<line x1="4" y1="-4" x2="262.449" y2="-4" transform="matrix(-0.676707 0.736253 0.707274 0.706939 282 140.856)" stroke="white" stroke-width="8" stroke-linecap="square"/>
<line x1="4" y1="-4" x2="344.473" y2="-4" transform="matrix(-0.692132 0.721771 0.692132 0.721771 278.519 73.2888)" stroke="white" stroke-width="8" stroke-linecap="square"/>
</svg>
