<svg width="20" height="20" viewBox="0 0 20 20" fill="none" xmlns="http://www.w3.org/2000/svg">
<rect x="3.5" y="3.5" width="12.9711" height="12.9711" stroke="white"/>
<line x1="14.4537" y1="3.44643" x2="16.5493" y2="5.54209" stroke="white"/>
<line x1="3.35355" y1="14.2566" x2="5.63056" y2="16.5336" stroke="white"/>
<line x1="11.0376" y1="3.34499" x2="16.6261" y2="8.93342" stroke="white"/>
<line x1="3.35355" y1="11.0291" x2="8.94198" y2="16.6175" stroke="white"/>
<line x1="7.35355" y1="3.44643" x2="16.4347" y2="12.5276" stroke="white"/>
<line x1="3.36097" y1="6.84533" x2="12.7624" y2="16.654" stroke="white"/>
<line x1="3.53519" y1="3.45943" x2="16.1111" y2="16.0353" stroke="white"/>
<line y1="-0.5" x2="2.9035" y2="-0.5" transform="matrix(-0.692132 0.721771 0.692132 0.721771 6.05566 3.70145)" stroke="white"/>
<line y1="-0.5" x2="3.15475" y2="-0.5" transform="matrix(-0.692132 0.721771 0.692132 0.721771 16.7 14.5116)" stroke="white"/>
<line y1="-0.5" x2="7.74266" y2="-0.5" transform="matrix(-0.692132 0.721771 0.692132 0.721771 9.3313 3.60001)" stroke="white"/>
<line y1="-0.5" x2="7.74266" y2="-0.5" transform="matrix(-0.692132 0.721771 0.692132 0.721771 16.7 11.2841)" stroke="white"/>
<line y1="-0.5" x2="12.5818" y2="-0.5" transform="matrix(-0.692132 0.721771 0.692132 0.721771 12.8643 3.70145)" stroke="white"/>
<line y1="-0.5" x2="13.3224" y2="-0.5" transform="matrix(-0.676707 0.736253 0.707274 0.706939 16.7 7.09277)" stroke="white"/>
<line y1="-0.5" x2="17.4237" y2="-0.5" transform="matrix(-0.692132 0.721771 0.692132 0.721771 16.5259 3.71445)" stroke="white"/>
</svg>
