<svg width="75" height="100" viewBox="0 0 75 100" fill="none" xmlns="http://www.w3.org/2000/svg">
<rect x="5" y="17" width="65.8553" height="65.8553" stroke="white" stroke-width="4"/>
<line x1="59.9147" y1="17.5857" x2="70.393" y2="28.064" stroke="white" stroke-width="4"/>
<line x1="4.41421" y1="71.6363" x2="15.7992" y2="83.0213" stroke="white" stroke-width="4"/>
<line x1="42.8346" y1="17.0785" x2="70.7768" y2="45.0207" stroke="white" stroke-width="4"/>
<line x1="4.41421" y1="55.4992" x2="32.3563" y2="83.4414" stroke="white" stroke-width="4"/>
<line x1="24.4142" y1="17.5857" x2="69.8202" y2="62.9917" stroke="white" stroke-width="4"/>
<line x1="4.44387" y1="34.5725" x2="51.4511" y2="83.6159" stroke="white" stroke-width="4"/>
<line x1="5.32242" y1="17.6507" x2="68.2019" y2="80.5302" stroke="white" stroke-width="4"/>
<line x1="2" y1="-2" x2="12.5175" y2="-2" transform="matrix(-0.692132 0.721771 0.692132 0.721771 17.7786 18.5072)" stroke="white" stroke-width="4" stroke-linecap="square"/>
<line x1="2" y1="-2" x2="13.7737" y2="-2" transform="matrix(-0.692132 0.721771 0.692132 0.721771 71 72.5578)" stroke="white" stroke-width="4" stroke-linecap="square"/>
<line x1="2" y1="-2" x2="36.7133" y2="-2" transform="matrix(-0.692132 0.721771 0.692132 0.721771 34.1567 18)" stroke="white" stroke-width="4" stroke-linecap="square"/>
<line x1="2" y1="-2" x2="36.7133" y2="-2" transform="matrix(-0.692132 0.721771 0.692132 0.721771 71 56.4204)" stroke="white" stroke-width="4" stroke-linecap="square"/>
<line x1="2" y1="-2" x2="60.9091" y2="-2" transform="matrix(-0.692132 0.721771 0.692132 0.721771 51.8215 18.5072)" stroke="white" stroke-width="4" stroke-linecap="square"/>
<line x1="2" y1="-2" x2="64.6122" y2="-2" transform="matrix(-0.676707 0.736253 0.707274 0.706939 71 35.464)" stroke="white" stroke-width="4" stroke-linecap="square"/>
<line x1="2" y1="-2" x2="85.1184" y2="-2" transform="matrix(-0.692132 0.721771 0.692132 0.721771 70.1296 18.5722)" stroke="white" stroke-width="4" stroke-linecap="square"/>
</svg>
