<svg width="20" height="20" viewBox="0 0 20 20" fill="none" xmlns="http://www.w3.org/2000/svg">
<rect width="20" height="20" fill="#1E1E1E"/>
<mask id="mask0_110_2820" style="mask-type:alpha" maskUnits="userSpaceOnUse" x="1" y="1" width="18" height="18">
<rect x="1" y="1" width="18" height="18" fill="#D9D9D9"/>
</mask>
<g mask="url(#mask0_110_2820)">
<line y1="3.64645" x2="4.64645" y2="-1" stroke="#346F50" stroke-width="0.5" stroke-linecap="round" stroke-dasharray="1 2 3 4"/>
<line x1="17" y1="18.6464" x2="21.6464" y2="14" stroke="#346F50" stroke-width="0.5" stroke-linecap="round" stroke-dasharray="1 2 3 4"/>
<line x1="-0.755432" y1="10.9019" x2="10.4019" y2="-0.255432" stroke="#346F50" stroke-width="0.5" stroke-linecap="round" stroke-dasharray="1 1 2 2"/>
<line x1="-3" y1="9.15731" x2="8.15731" y2="-2" stroke="#346F50" stroke-width="0.5" stroke-linecap="round" stroke-dasharray="1 1 2 1"/>
<line x1="-3" y1="11.1573" x2="8.15731" y2="4.16339e-07" stroke="#346F50" stroke-width="0.5" stroke-linecap="round" stroke-dasharray="1 1 2 1"/>
<line x1="-1" y1="13.6464" x2="14.6464" y2="-2" stroke="#346F50" stroke-width="0.5" stroke-linecap="round" stroke-dasharray="1 1 2 1"/>
<line x1="-1" y1="16.1464" x2="14.6464" y2="0.499999" stroke="#346F50" stroke-width="0.5" stroke-linecap="round" stroke-dasharray="1 1 2 1"/>
<line x1="1" y1="16.8465" x2="16.6464" y2="1.20001" stroke="#346F50" stroke-width="0.5" stroke-linecap="round" stroke-dasharray="1 1 2 1"/>
<line y1="20.6464" x2="18.6464" y2="2" stroke="#346F50" stroke-width="0.5" stroke-linecap="round" stroke-dasharray="1 2 1 1"/>
<line x1="4" y1="19.6464" x2="22.6464" y2="1" stroke="#346F50" stroke-width="0.5" stroke-linecap="round" stroke-dasharray="1 1 2 1"/>
<line x1="5" y1="21.6464" x2="23.6464" y2="3" stroke="#346F50" stroke-width="0.5" stroke-linecap="round" stroke-dasharray="1 1 2 1"/>
<line x1="7" y1="22.6464" x2="25.6464" y2="4" stroke="#346F50" stroke-width="0.5" stroke-linecap="round" stroke-dasharray="1 2 1 1 2 1"/>
<line x1="9" y1="23.6464" x2="27.6464" y2="5" stroke="#346F50" stroke-width="0.5" stroke-linecap="round" stroke-dasharray="1 1 2 1"/>
</g>
</svg>
