<svg width="20" height="20" viewBox="0 0 20 20" fill="none" xmlns="http://www.w3.org/2000/svg">
<circle cx="10" cy="10" r="6.5" stroke="white"/>
<mask id="mask0_137_95126" style="mask-type:alpha" maskUnits="userSpaceOnUse" x="3" y="3" width="14" height="14">
<circle cx="10" cy="10" r="6.5" fill="#D9D9D9" stroke="white"/>
</mask>
<g mask="url(#mask0_137_95126)">
<line y1="-0.5" x2="2.96371" y2="-0.5" transform="matrix(-0.707107 0.707107 0.707107 0.707107 5.8999 3.79999)" stroke="white"/>
<line y1="-0.5" x2="3.22017" y2="-0.5" transform="matrix(-0.707107 0.707107 0.707107 0.707107 17 14.6101)" stroke="white"/>
<line y1="-0.5" x2="7.90323" y2="-0.5" transform="matrix(-0.707107 0.707107 0.707107 0.707107 9.31592 3.69855)" stroke="white"/>
<line y1="-0.5" x2="7.90323" y2="-0.5" transform="matrix(-0.707107 0.707107 0.707107 0.707107 17 11.3827)" stroke="white"/>
<line y1="-0.5" x2="12.8427" y2="-0.5" transform="matrix(-0.707107 0.707107 0.707107 0.707107 13 3.79999)" stroke="white"/>
<line y1="-0.5" x2="13.5867" y2="-0.5" transform="matrix(-0.691961 0.721935 0.721935 0.691961 17 7.19131)" stroke="white"/>
<line y1="-0.5" x2="17.785" y2="-0.5" transform="matrix(-0.707107 0.707107 0.707107 0.707107 16.8184 3.81299)" stroke="white"/>
</g>
</svg>
