<svg width="20" height="20" viewBox="0 0 20 20" fill="none" xmlns="http://www.w3.org/2000/svg">
<path d="M5.55034 11.1136C5.53755 10.4062 5.65261 9.83736 5.89551 9.40696C6.13841 8.97656 6.45375 8.66335 6.84153 8.46733C7.23358 8.27131 7.64693 8.1733 8.08159 8.1733C8.51625 8.1733 8.91255 8.26918 9.27051 8.46094C9.63272 8.64844 10.0461 8.9446 10.5106 9.34943C10.8259 9.62216 11.0773 9.81392 11.2648 9.92472C11.4566 10.0355 11.6654 10.0909 11.8912 10.0909C12.2577 10.0909 12.5475 9.95881 12.7606 9.6946C12.9736 9.42614 13.0759 9.03835 13.0674 8.53125H14.4481C14.4608 9.23864 14.3458 9.80753 14.1029 10.2379C13.8643 10.6683 13.5489 10.9815 13.1569 11.1776C12.7648 11.3736 12.3515 11.4716 11.9168 11.4716C11.4822 11.4716 11.0858 11.3778 10.7279 11.1903C10.3699 10.9986 9.95659 10.7003 9.48784 10.2955C9.17676 10.0227 8.92534 9.83097 8.73358 9.72017C8.54181 9.60938 8.33301 9.55398 8.10716 9.55398C7.76199 9.55398 7.47647 9.67543 7.25062 9.91832C7.02903 10.157 6.9225 10.5554 6.93102 11.1136H5.55034Z" fill="white"/>
</svg>
