<svg width="76" height="100" viewBox="0 0 76 100" fill="none" xmlns="http://www.w3.org/2000/svg">
<path d="M23.1678 54.0455C23.1252 51.6875 23.5087 49.7912 24.3184 48.3565C25.128 46.9219 26.1792 45.8778 27.4718 45.2244C28.7786 44.571 30.1564 44.2443 31.6053 44.2443C33.0542 44.2443 34.3752 44.5639 35.5684 45.2031C36.7757 45.8281 38.1536 46.8153 39.7019 48.1648C40.753 49.0739 41.5911 49.7131 42.2161 50.0824C42.8553 50.4517 43.5513 50.6364 44.3042 50.6364C45.5257 50.6364 46.4917 50.196 47.2019 49.3153C47.9121 48.4205 48.253 47.1278 48.2246 45.4375H52.8269C52.8695 47.7955 52.486 49.6918 51.6763 51.1264C50.8809 52.5611 49.8297 53.6051 48.5229 54.2585C47.2161 54.9119 45.8382 55.2386 44.3894 55.2386C42.9405 55.2386 41.6195 54.9261 40.4263 54.3011C39.2331 53.6619 37.8553 52.6676 36.2928 51.3182C35.2559 50.4091 34.4178 49.7699 33.7786 49.4006C33.1394 49.0312 32.4434 48.8466 31.6905 48.8466C30.54 48.8466 29.5882 49.2514 28.8354 50.0611C28.0968 50.8565 27.7417 52.1847 27.7701 54.0455H23.1678Z" fill="black"/>
</svg>
