<svg width="76" height="100" viewBox="0 0 76 100" fill="none" xmlns="http://www.w3.org/2000/svg">
<path d="M30.4718 49.6761V47.0341C32.8439 47.0341 34.4988 46.5369 35.4363 45.5426C36.388 44.5483 36.8638 42.8864 36.8638 40.5568V33.7386C36.8638 31.7784 37.0485 30.081 37.4178 28.6463C37.8013 27.2116 38.4192 26.0256 39.2715 25.0881C40.1238 24.1506 41.2601 23.4545 42.6806 23C44.101 22.5455 45.8553 22.3182 47.9434 22.3182V26.4943C46.2956 26.4943 44.9959 26.75 44.0442 27.2614C43.1067 27.7727 42.4391 28.5682 42.0414 29.6477C41.6578 30.7131 41.4661 32.0767 41.4661 33.7386V42.2614C41.4661 43.3693 41.3169 44.3778 41.0186 45.2869C40.7346 46.196 40.2019 46.9773 39.4206 47.6307C38.6394 48.2841 37.5243 48.7884 36.0755 49.1435C34.6408 49.4986 32.7729 49.6761 30.4718 49.6761ZM47.9434 76.8636C45.8553 76.8636 44.101 76.6364 42.6806 76.1818C41.2601 75.7273 40.1238 75.0312 39.2715 74.0938C38.4192 73.1562 37.8013 71.9702 37.4178 70.5355C37.0485 69.1009 36.8638 67.4034 36.8638 65.4432V58.625C36.8638 56.2955 36.388 54.6335 35.4363 53.6392C34.4988 52.6449 32.8439 52.1477 30.4718 52.1477V49.5057C32.7729 49.5057 34.6408 49.6832 36.0755 50.0384C37.5243 50.3935 38.6394 50.8977 39.4206 51.5511C40.2019 52.2045 40.7346 52.9858 41.0186 53.8949C41.3169 54.804 41.4661 55.8125 41.4661 56.9205V65.4432C41.4661 67.1051 41.6578 68.4688 42.0414 69.5341C42.4391 70.5994 43.1067 71.3878 44.0442 71.8991C44.9959 72.4247 46.2956 72.6875 47.9434 72.6875V76.8636ZM30.4718 52.1477V47.0341H35.5002V52.1477H30.4718Z" fill="black"/>
</svg>
