<svg width="20" height="20" viewBox="0 0 20 20" fill="none" xmlns="http://www.w3.org/2000/svg">
<path d="M7.90403 10.3028V9.51021C8.61568 9.51021 9.11213 9.36107 9.39338 9.06277C9.67889 8.76448 9.82164 8.2659 9.82164 7.56703V5.52158C9.82164 4.93351 9.87704 4.42428 9.98784 3.99388C10.1029 3.56348 10.2883 3.20766 10.5439 2.92641C10.7996 2.64516 11.1405 2.43635 11.5667 2.29999C11.9928 2.16362 12.5191 2.09544 13.1455 2.09544V3.34828C12.6512 3.34828 12.2613 3.42499 11.9758 3.5784C11.6945 3.73181 11.4942 3.97044 11.3749 4.29431C11.2599 4.61391 11.2023 5.023 11.2023 5.52158V8.0784C11.2023 8.41078 11.1576 8.71334 11.0681 8.98607C10.9829 9.25879 10.8231 9.49317 10.5887 9.68919C10.3543 9.88521 10.0198 10.0365 9.58514 10.143C9.15474 10.2496 8.59437 10.3028 7.90403 10.3028ZM13.1455 18.4591C12.5191 18.4591 11.9928 18.3909 11.5667 18.2545C11.1405 18.1182 10.7996 17.9094 10.5439 17.6281C10.2883 17.3469 10.1029 16.991 9.98784 16.5606C9.87704 16.1302 9.82164 15.621 9.82164 15.0329V12.9875C9.82164 12.2886 9.67889 11.79 9.39338 11.4917C9.11213 11.1935 8.61568 11.0443 7.90403 11.0443V10.2517C8.59437 10.2517 9.15474 10.305 9.58514 10.4115C10.0198 10.518 10.3543 10.6693 10.5887 10.8653C10.8231 11.0614 10.9829 11.2957 11.0681 11.5685C11.1576 11.8412 11.2023 12.1437 11.2023 12.4761V15.0329C11.2023 15.5315 11.2599 15.9406 11.3749 16.2602C11.4942 16.5798 11.6945 16.8163 11.9758 16.9697C12.2613 17.1274 12.6512 17.2062 13.1455 17.2062V18.4591ZM7.90403 11.0443V9.51021H9.41255V11.0443H7.90403Z" fill="white"/>
</svg>
