<svg width="20" height="20" viewBox="0 0 20 20" fill="none" xmlns="http://www.w3.org/2000/svg">
<path d="M13.0944 10.2517V11.0443C12.3827 11.0443 11.8841 11.1935 11.5986 11.4917C11.3174 11.79 11.1768 12.2886 11.1768 12.9875V15.0329C11.1768 15.621 11.1192 16.1302 11.0042 16.5606C10.8934 16.991 10.7101 17.3469 10.4545 17.6281C10.1988 17.9094 9.85787 18.1182 9.43173 18.2545C9.00559 18.3909 8.47931 18.4591 7.85289 18.4591V17.2062C8.34721 17.2062 8.735 17.1274 9.01625 16.9697C9.30176 16.8163 9.50204 16.5798 9.6171 16.2602C9.73642 15.9406 9.79608 15.5315 9.79608 15.0329V12.4761C9.79608 12.1437 9.83869 11.8412 9.92392 11.5685C10.0134 11.2957 10.1753 11.0614 10.4097 10.8653C10.6441 10.6693 10.9765 10.518 11.4069 10.4115C11.8415 10.305 12.404 10.2517 13.0944 10.2517ZM7.85289 2.09544C8.47931 2.09544 9.00559 2.16362 9.43173 2.29999C9.85787 2.43635 10.1988 2.64516 10.4545 2.92641C10.7101 3.20766 10.8934 3.56348 11.0042 3.99388C11.1192 4.42428 11.1768 4.93351 11.1768 5.52158V7.56703C11.1768 8.2659 11.3174 8.76448 11.5986 9.06277C11.8841 9.36107 12.3827 9.51021 13.0944 9.51021V10.3028C12.404 10.3028 11.8415 10.2496 11.4069 10.143C10.9765 10.0365 10.6441 9.88521 10.4097 9.68919C10.1753 9.49317 10.0134 9.25879 9.92392 8.98607C9.83869 8.71334 9.79608 8.41078 9.79608 8.0784V5.52158C9.79608 5.023 9.73642 4.61391 9.6171 4.29431C9.50204 3.97044 9.30176 3.73181 9.01625 3.5784C8.735 3.42499 8.34721 3.34828 7.85289 3.34828V2.09544ZM13.0944 9.51021V11.0443H11.5858V9.51021H13.0944Z" fill="white"/>
</svg>
