<svg width="76" height="100" viewBox="0 0 76 100" fill="none" xmlns="http://www.w3.org/2000/svg">
<path d="M46.7729 49.5057V52.1477C44.4007 52.1477 42.7388 52.6449 41.7871 53.6392C40.8496 54.6335 40.3809 56.2955 40.3809 58.625V65.4432C40.3809 67.4034 40.1891 69.1009 39.8056 70.5355C39.4363 71.9702 38.8255 73.1562 37.9732 74.0938C37.1209 75.0312 35.9846 75.7273 34.5641 76.1818C33.1436 76.6364 31.3894 76.8636 29.3013 76.8636V72.6875C30.949 72.6875 32.2417 72.4247 33.1792 71.8991C34.1309 71.3878 34.7985 70.5994 35.182 69.5341C35.5797 68.4688 35.7786 67.1051 35.7786 65.4432V56.9205C35.7786 55.8125 35.9206 54.804 36.2047 53.8949C36.503 52.9858 37.0428 52.2045 37.824 51.5511C38.6053 50.8977 39.7132 50.3935 41.1479 50.0384C42.5968 49.6832 44.4718 49.5057 46.7729 49.5057ZM29.3013 22.3182C31.3894 22.3182 33.1436 22.5455 34.5641 23C35.9846 23.4545 37.1209 24.1506 37.9732 25.0881C38.8255 26.0256 39.4363 27.2116 39.8056 28.6463C40.1891 30.081 40.3809 31.7784 40.3809 33.7386V40.5568C40.3809 42.8864 40.8496 44.5483 41.7871 45.5426C42.7388 46.5369 44.4007 47.0341 46.7729 47.0341V49.6761C44.4718 49.6761 42.5968 49.4986 41.1479 49.1435C39.7132 48.7884 38.6053 48.2841 37.824 47.6307C37.0428 46.9773 36.503 46.196 36.2047 45.2869C35.9206 44.3778 35.7786 43.3693 35.7786 42.2614V33.7386C35.7786 32.0767 35.5797 30.7131 35.182 29.6477C34.7985 28.5682 34.1309 27.7727 33.1792 27.2614C32.2417 26.75 30.949 26.4943 29.3013 26.4943V22.3182ZM46.7729 47.0341V52.1477H41.7445V47.0341H46.7729Z" fill="white"/>
</svg>
