<svg width="76" height="100" viewBox="0 0 76 100" fill="none" xmlns="http://www.w3.org/2000/svg">
<path d="M37.6367 70.72C34.4767 70.72 31.6767 69.84 29.2367 68.08C26.8367 66.32 24.9567 63.82 23.5967 60.58C22.2767 57.34 21.6167 53.48 21.6167 49C21.6167 44.52 22.2767 40.66 23.5967 37.42C24.9567 34.18 26.8367 31.68 29.2367 29.92C31.6767 28.16 34.4767 27.28 37.6367 27.28C40.8367 27.28 43.6367 28.16 46.0367 29.92C48.4367 31.68 50.2967 34.18 51.6167 37.42C52.9767 40.66 53.6567 44.52 53.6567 49C53.6567 53.48 52.9767 57.34 51.6167 60.58C50.2967 63.82 48.4367 66.32 46.0367 68.08C43.6367 69.84 40.8367 70.72 37.6367 70.72ZM26.7767 49C26.7767 51.72 27.0567 54.18 27.6167 56.38C28.2167 58.54 29.0367 60.36 30.0767 61.84L41.7167 32.98C40.4767 32.3 39.1167 31.96 37.6367 31.96C35.5167 31.96 33.6367 32.66 31.9967 34.06C30.3567 35.42 29.0767 37.38 28.1567 39.94C27.2367 42.46 26.7767 45.48 26.7767 49ZM37.6367 66.1C39.7567 66.1 41.6367 65.42 43.2767 64.06C44.9167 62.66 46.1967 60.68 47.1167 58.12C48.0367 55.56 48.4967 52.52 48.4967 49C48.4967 46.28 48.1967 43.84 47.5967 41.68C47.0367 39.48 46.2367 37.64 45.1967 36.16L33.4967 65.08C34.7767 65.76 36.1567 66.1 37.6367 66.1Z" fill="black"/>
</svg>
