<svg width="20" height="20" viewBox="0 0 20 20" fill="none" xmlns="http://www.w3.org/2000/svg">
<path d="M10.5035 16.466C9.55552 16.466 8.71552 16.202 7.98352 15.674C7.26352 15.146 6.69952 14.396 6.29152 13.424C5.89552 12.452 5.69752 11.294 5.69752 9.95C5.69752 8.606 5.89552 7.448 6.29152 6.476C6.69952 5.504 7.26352 4.754 7.98352 4.226C8.71552 3.698 9.55552 3.434 10.5035 3.434C11.4635 3.434 12.3035 3.698 13.0235 4.226C13.7435 4.754 14.3015 5.504 14.6975 6.476C15.1055 7.448 15.3095 8.606 15.3095 9.95C15.3095 11.294 15.1055 12.452 14.6975 13.424C14.3015 14.396 13.7435 15.146 13.0235 15.674C12.3035 16.202 11.4635 16.466 10.5035 16.466ZM7.24552 9.95C7.24552 10.766 7.32952 11.504 7.49752 12.164C7.67752 12.812 7.92352 13.358 8.23552 13.802L11.7275 5.144C11.3555 4.94 10.9475 4.838 10.5035 4.838C9.86752 4.838 9.30352 5.048 8.81152 5.468C8.31952 5.876 7.93552 6.464 7.65952 7.232C7.38352 7.988 7.24552 8.894 7.24552 9.95ZM10.5035 15.08C11.1395 15.08 11.7035 14.876 12.1955 14.468C12.6875 14.048 13.0715 13.454 13.3475 12.686C13.6235 11.918 13.7615 11.006 13.7615 9.95C13.7615 9.134 13.6715 8.402 13.4915 7.754C13.3235 7.094 13.0835 6.542 12.7715 6.098L9.26152 14.774C9.64552 14.978 10.0595 15.08 10.5035 15.08Z" fill="white"/>
</svg>
