<svg width="20" height="20" viewBox="0 0 20 20" fill="none" xmlns="http://www.w3.org/2000/svg">
<path d="M9.56589 16.25C8.93589 14.666 8.43189 13.766 6.21789 10.724C4.79589 8.78 4.25589 7.502 4.25589 6.188C4.25589 4.604 5.62389 3.308 7.20789 3.308C8.32389 3.308 9.34989 3.884 9.97989 5.054C10.6279 3.884 11.6539 3.308 12.7879 3.308C14.3359 3.308 15.7399 4.604 15.7399 6.188C15.7399 7.466 15.2899 8.672 13.7779 10.742C11.5459 13.802 11.0059 14.756 10.4119 16.25H9.56589ZM9.97989 14.684C10.4299 13.766 11.2219 12.56 12.2839 11.102C13.3459 9.644 14.0119 8.582 14.2999 7.952C14.5879 7.322 14.7319 6.728 14.7319 6.188C14.7319 5.162 13.8319 4.316 12.7879 4.316C11.7439 4.316 10.8619 5.216 10.4479 6.71H9.52989C9.07989 5.09 8.19789 4.316 7.20789 4.316C6.18189 4.316 5.26389 5.162 5.26389 6.188C5.26389 6.71 5.40789 7.286 5.67789 7.916C5.94789 8.546 6.61389 9.572 7.65789 10.994C8.70189 12.398 9.47589 13.64 9.97989 14.684Z" fill="white"/>
</svg>
