<svg width="76" height="100" viewBox="0 0 76 100" fill="none" xmlns="http://www.w3.org/2000/svg">
<path d="M36.1352 51.8459C32.6674 48.793 29.7884 46.8774 25.012 46.8774C19.9084 46.8774 15.3937 50.1099 12.6456 54.8389L8 52.5642C12.1876 45.6802 18.2072 42.0886 25.0774 42.0886C31.0316 42.0886 35.2846 44.3035 39.8648 48.4338C43.3326 51.5466 46.2116 53.4022 50.988 53.4022C56.0916 53.4022 60.6063 50.1698 63.3544 45.4408L68 47.7155C63.8124 54.5994 57.7928 58.191 50.9226 58.191C44.9684 58.191 40.7154 55.9762 36.1352 51.8459Z" fill="white"/>
<path d="M36.1352 73.7946C32.6674 70.7417 29.7884 68.8262 25.012 68.8262C19.9084 68.8262 15.3937 72.0586 12.6456 76.7876L8 74.5129C12.1876 67.629 18.2072 64.0374 25.0774 64.0374C31.0316 64.0374 35.2846 66.2522 39.8648 70.3825C43.3326 73.4953 46.2116 75.351 50.988 75.351C56.0916 75.351 60.6063 72.1185 63.3544 67.3895L68 69.6642C63.8124 76.5482 57.7928 80.1398 50.9226 80.1398C44.9684 80.1398 40.7154 77.9249 36.1352 73.7946Z" fill="white"/>
<path d="M36.1352 29.8971C32.6674 26.8442 29.7884 24.9287 25.012 24.9287C19.9084 24.9287 15.3937 28.1612 12.6456 32.8901L8 30.6154C12.1876 23.7315 18.2072 20.1399 25.0774 20.1399C31.0316 20.1399 35.2846 22.3547 39.8648 26.4851C43.3326 29.5978 46.2116 31.4535 50.988 31.4535C56.0916 31.4535 60.6063 28.221 63.3544 23.4921L68 25.7668C63.8124 32.6507 57.7928 36.2423 50.9226 36.2423C44.9684 36.2423 40.7154 34.0275 36.1352 29.8971Z" fill="white"/>
</svg>
