<svg width="20" height="20" viewBox="0 0 20 20" fill="none" xmlns="http://www.w3.org/2000/svg">
<path d="M7.06375 16.864C5.80375 16.864 4.56175 15.64 4.56175 14.452C4.56175 13.012 5.94775 11.662 7.15375 11.248C6.72175 11.374 6.30775 11.428 5.89375 11.428C4.21975 11.428 2.76175 10.456 2.76175 8.908C2.76175 7.36 3.87775 6.316 5.20975 6.316C6.27175 6.316 7.49575 7 8.23375 7.936C7.81975 7.342 7.47775 6.406 7.47775 5.452C7.47775 4.03 8.46775 2.86 9.99775 2.86C11.4918 2.86 12.4818 3.994 12.4818 5.452C12.4818 6.334 12.1938 7.27 11.7258 7.936L11.7978 7.846C12.5718 6.892 13.6518 6.316 14.7858 6.316C16.0818 6.316 17.2338 7.324 17.2338 8.89C17.2338 10.492 15.6678 11.428 14.0838 11.428C13.5258 11.41 13.0938 11.338 12.8058 11.248C14.0478 11.698 15.4338 12.958 15.4338 14.488C15.4338 15.586 14.2458 16.864 12.9138 16.864C11.7258 16.864 10.8438 16.072 10.3578 14.848C10.1058 14.218 9.99775 13.714 9.99775 13.3C9.72775 15.514 8.66575 16.864 7.06375 16.864ZM8.98975 8.224L9.56575 8.008C9.67375 7.738 9.70975 7.504 9.70975 7.324C9.70975 7.09 9.56575 6.64 9.56575 6.46C9.56575 6.136 9.70975 5.848 9.99775 5.848C10.2858 5.848 10.4298 6.136 10.4298 6.46C10.4298 6.694 10.2498 7.09 10.2498 7.324C10.2498 7.54 10.3038 7.774 10.3938 8.008L10.9698 8.224C11.4558 7.738 11.7617 6.874 11.7617 6.028C11.7617 4.894 11.0418 4.156 9.99775 4.156C8.95375 4.156 8.19775 4.894 8.19775 6.028C8.19775 6.874 8.50375 7.756 8.98975 8.224ZM6.36175 10.996C6.84775 10.996 7.26175 10.906 7.62175 10.708V10.096C7.49575 9.916 7.13575 9.754 6.54175 9.7C5.96575 9.646 5.65975 9.466 5.65975 9.16C5.65975 8.89 5.87575 8.782 6.09175 8.782C6.23575 8.782 6.48775 8.854 6.81175 9.052C7.13575 9.25 7.47775 9.34 7.80175 9.34H7.87375L8.23375 8.836C7.87375 8.098 6.77575 7.288 5.71375 7.288C4.70575 7.288 4.00375 8.116 4.00375 9.124C4.00375 10.204 4.95775 10.996 6.36175 10.996ZM13.6158 10.996C15.0198 10.996 15.9918 10.204 15.9918 9.124C15.9918 8.08 15.2538 7.288 14.2638 7.288C13.1658 7.288 12.0678 8.116 11.7258 8.836L12.1218 9.34H12.1938L12.3378 9.322C12.6258 9.286 12.9138 9.232 13.2018 9.052C13.4898 8.872 13.7058 8.782 13.8678 8.782C14.1558 8.782 14.2998 8.908 14.2998 9.178C14.2998 9.484 14.0658 9.646 13.5978 9.664C13.1298 9.682 12.7158 9.826 12.3738 10.096L12.3378 10.708C12.6978 10.906 13.1118 10.996 13.6158 10.996ZM7.35175 15.712C8.55775 15.712 9.47575 14.092 9.47575 12.976V12.796L9.45775 12.652L8.88175 12.472C8.46775 12.724 8.19775 13.066 8.08975 13.462C7.98175 13.876 7.78375 14.074 7.49575 14.074C7.27975 14.074 7.09975 13.858 7.09975 13.66C7.09975 13.408 7.26175 13.192 7.56775 12.976C7.87375 12.76 8.08975 12.436 8.19775 12.004L7.87375 11.5C6.91975 11.68 5.51575 12.706 5.51575 13.948C5.51575 14.884 6.43375 15.712 7.35175 15.712ZM12.5358 15.712C13.4718 15.712 14.3718 14.866 14.3718 13.948C14.3718 12.688 12.9858 11.716 12.0137 11.5L11.6898 12.004C11.7798 12.418 11.9958 12.724 12.3018 12.976C12.6078 13.228 12.7698 13.462 12.7698 13.696C12.7698 13.894 12.5898 14.074 12.3918 14.074C12.1398 14.074 11.9238 13.876 11.7798 13.462C11.6358 13.066 11.3658 12.742 11.0058 12.472L10.4298 12.652L10.4118 12.796V12.976C10.4118 13.642 10.8438 14.758 11.4918 15.298C11.8158 15.568 12.1578 15.712 12.5358 15.712Z" fill="white"/>
</svg>
