<svg width="76" height="100" viewBox="0 0 76 100" fill="none" xmlns="http://www.w3.org/2000/svg">
<path d="M38.2402 76.15C36.9802 76.15 36.2802 75.17 36.3502 73.14L36.5602 65.09C35.8602 67.19 33.6902 69.15 30.8202 69.15C27.8802 69.15 25.3602 66.7 25.3602 63.83C25.3602 62.43 25.9902 60.47 26.9002 59.21L20.6702 63.06C19.4102 63.9 18.3602 64.32 17.7302 64.32C16.9602 64.32 15.9802 63.55 15.9802 62.5C15.9802 61.66 16.8202 60.82 18.5702 59.98L24.9402 56.55L24.7302 56.62H24.1702C21.6502 56.62 17.8002 54.52 17.8002 51.09C17.8002 47.17 21.0202 45.21 24.7302 45.21H25.2202L18.5702 41.57C16.8202 40.73 15.9802 39.89 15.9802 38.98C15.9802 37.93 16.8902 37.23 17.6602 37.23C18.2902 37.23 19.1302 37.44 20.0402 38.07C20.9502 38.7 23.1202 40.03 26.6202 42.13C25.8502 41.36 25.3602 39.75 25.3602 37.93C25.3602 34.78 27.5302 32.47 30.8202 32.47C33.1302 32.47 35.3702 34.22 36.5602 36.81L36.3502 28.48C36.3502 26.45 36.9802 25.47 38.2402 25.47C39.5002 25.47 40.2002 26.45 40.1302 28.48L39.9202 36.53L40.1302 35.97C40.8302 34.15 43.2102 32.33 45.8002 32.33C48.7402 32.33 50.9802 35.06 50.9802 38C50.9802 39.47 50.4902 40.94 49.5802 42.41L55.8102 38.56C57.0002 37.72 57.9802 37.3 58.7502 37.3C59.5202 37.3 60.5002 38.07 60.5002 39.12C60.5002 39.89 59.6602 40.73 57.9102 41.57L51.4002 45.21H51.7502L52.5202 45.14C55.2502 45.14 58.6102 47.17 58.6102 50.6C58.6102 54.1 55.8802 56.41 51.6102 56.41H51.1202L57.9102 60.05C59.6602 60.89 60.5002 61.73 60.5002 62.64C60.5002 63.48 59.7302 64.46 58.7502 64.46C58.1202 64.46 57.1402 64.04 55.8802 63.2L49.7202 59.49C50.5602 60.33 51.1202 61.94 51.1202 63.69C51.1202 66.84 48.9502 69.15 45.6602 69.15C43.3502 69.15 41.1102 67.33 39.9202 64.81L40.1302 73.14C40.2002 75.17 39.5002 76.15 38.2402 76.15ZM39.2202 48.57C46.4302 44.51 48.8802 41.43 48.8802 37.93C48.8802 36.04 47.4102 34.5 45.7302 34.5C41.4602 34.5 39.2202 41.99 39.2202 48.29V48.57ZM36.7002 48.85C36.7002 43.04 36.0702 39.26 34.7402 37.37C33.4102 35.48 32.0802 34.57 30.6802 34.57C28.8602 34.57 27.3202 36.04 27.3202 38.35C27.3202 41.36 31.2402 45.49 36.0002 48.36L36.7002 48.85ZM50.9802 54.45C53.9902 54.45 56.5102 52.98 56.5102 50.88C56.5102 48.71 54.2702 46.89 51.5402 46.89H51.2602C48.4602 46.96 44.3302 48.43 40.6202 50.53C44.8202 52.91 48.8802 54.45 50.9802 54.45ZM24.7302 54.73H25.0802C27.8802 54.59 31.8702 53.26 35.7202 51.09C31.1702 48.43 27.7402 47.17 25.5002 47.17C22.2802 47.17 19.9702 48.57 19.9702 50.88C19.9702 52.91 21.9302 54.73 24.7302 54.73ZM45.8002 67.05C47.6902 67.05 49.1602 65.37 49.1602 63.27C49.1602 60.05 45.4502 56.34 39.7802 52.77C39.7802 58.65 40.4802 62.5 41.8102 64.32C43.1402 66.14 44.4702 67.05 45.8002 67.05ZM30.7502 67.12C34.8802 67.12 37.2602 60.12 37.2602 53.19C33.1302 55.57 30.4702 57.53 29.2802 59.07C28.0902 60.61 27.4602 62.22 27.4602 63.9C27.4602 65.58 28.9302 67.12 30.7502 67.12Z" fill="white"/>
</svg>
