<svg width="20" height="20" viewBox="0 0 20 20" fill="none" xmlns="http://www.w3.org/2000/svg">
<path d="M9.99747 16.61C9.67347 16.61 9.49347 16.358 9.51147 15.836L9.56547 13.766C9.38547 14.306 8.82747 14.81 8.08947 14.81C7.33347 14.81 6.68547 14.18 6.68547 13.442C6.68547 13.082 6.84747 12.578 7.08147 12.254L5.47947 13.244C5.15547 13.46 4.88547 13.568 4.72347 13.568C4.52547 13.568 4.27347 13.37 4.27347 13.1C4.27347 12.884 4.48947 12.668 4.93947 12.452L6.57747 11.57L6.52347 11.588H6.37947C5.73147 11.588 4.74147 11.048 4.74147 10.166C4.74147 9.15799 5.56947 8.65399 6.52347 8.65399H6.64947L4.93947 7.71799C4.48947 7.50199 4.27347 7.28599 4.27347 7.05199C4.27347 6.78199 4.50747 6.60199 4.70547 6.60199C4.86747 6.60199 5.08347 6.65599 5.31747 6.81799C5.55147 6.97999 6.10947 7.32199 7.00947 7.86199C6.81147 7.66399 6.68547 7.24999 6.68547 6.78199C6.68547 5.97199 7.24347 5.37799 8.08947 5.37799C8.68347 5.37799 9.25947 5.82799 9.56547 6.49399L9.51147 4.35199C9.51147 3.82999 9.67347 3.57799 9.99747 3.57799C10.3215 3.57799 10.5015 3.82999 10.4835 4.35199L10.4295 6.42199L10.4835 6.27799C10.6635 5.80999 11.2755 5.34199 11.9415 5.34199C12.6975 5.34199 13.2735 6.04399 13.2735 6.79999C13.2735 7.17799 13.1475 7.55599 12.9135 7.93399L14.5155 6.94399C14.8215 6.72799 15.0735 6.61999 15.2715 6.61999C15.4695 6.61999 15.7215 6.81799 15.7215 7.08799C15.7215 7.28599 15.5055 7.50199 15.0555 7.71799L13.3815 8.65399H13.4715L13.6695 8.63599C14.3715 8.63599 15.2355 9.15799 15.2355 10.04C15.2355 10.94 14.5335 11.534 13.4355 11.534H13.3095L15.0555 12.47C15.5055 12.686 15.7215 12.902 15.7215 13.136C15.7215 13.352 15.5235 13.604 15.2715 13.604C15.1095 13.604 14.8575 13.496 14.5335 13.28L12.9495 12.326C13.1655 12.542 13.3095 12.956 13.3095 13.406C13.3095 14.216 12.7515 14.81 11.9055 14.81C11.3115 14.81 10.7355 14.342 10.4295 13.694L10.4835 15.836C10.5015 16.358 10.3215 16.61 9.99747 16.61ZM10.2495 9.51799C12.1035 8.47399 12.7335 7.68199 12.7335 6.78199C12.7335 6.29599 12.3555 5.89999 11.9235 5.89999C10.8255 5.89999 10.2495 7.82599 10.2495 9.44599V9.51799ZM9.60147 9.58999C9.60147 8.09599 9.43947 7.12399 9.09747 6.63799C8.75547 6.15199 8.41347 5.91799 8.05347 5.91799C7.58547 5.91799 7.18947 6.29599 7.18947 6.88999C7.18947 7.66399 8.19747 8.72599 9.42147 9.46399L9.60147 9.58999ZM13.2735 11.03C14.0475 11.03 14.6955 10.652 14.6955 10.112C14.6955 9.55399 14.1195 9.08599 13.4175 9.08599H13.3455C12.6255 9.10399 11.5635 9.48199 10.6095 10.022C11.6895 10.634 12.7335 11.03 13.2735 11.03ZM6.52347 11.102H6.61347C7.33347 11.066 8.35947 10.724 9.34947 10.166C8.17947 9.48199 7.29747 9.15799 6.72147 9.15799C5.89347 9.15799 5.29947 9.51799 5.29947 10.112C5.29947 10.634 5.80347 11.102 6.52347 11.102ZM11.9415 14.27C12.4275 14.27 12.8055 13.838 12.8055 13.298C12.8055 12.47 11.8515 11.516 10.3935 10.598C10.3935 12.11 10.5735 13.1 10.9155 13.568C11.2575 14.036 11.5995 14.27 11.9415 14.27ZM8.07147 14.288C9.13347 14.288 9.74547 12.488 9.74547 10.706C8.68347 11.318 7.99947 11.822 7.69347 12.218C7.38747 12.614 7.22547 13.028 7.22547 13.46C7.22547 13.892 7.60347 14.288 8.07147 14.288Z" fill="white"/>
</svg>
