<svg width="20" height="20" viewBox="0 0 20 20" fill="none" xmlns="http://www.w3.org/2000/svg">
<path d="M11.5303 2.46967C11.2374 2.17678 10.7626 2.17678 10.4697 2.46967L5.6967 7.24264C5.40381 7.53553 5.40381 8.01041 5.6967 8.3033C5.98959 8.59619 6.46447 8.59619 6.75736 8.3033L11 4.06066L15.2426 8.3033C15.5355 8.59619 16.0104 8.59619 16.3033 8.3033C16.5962 8.01041 16.5962 7.53553 16.3033 7.24264L11.5303 2.46967ZM10.25 3V18H11.75V3H10.25Z" fill="white"/>
<path d="M11.4596 7.54038C11.2058 7.28654 10.7942 7.28654 10.5404 7.54038L6.40381 11.677C6.14997 11.9308 6.14997 12.3424 6.40381 12.5962C6.65765 12.85 7.0692 12.85 7.32304 12.5962L11 8.91924L14.677 12.5962C14.9308 12.85 15.3424 12.85 15.5962 12.5962C15.85 12.3424 15.85 11.9308 15.5962 11.677L11.4596 7.54038ZM10.35 8V17H11.65V8H10.35Z" fill="white"/>
</svg>
