<svg width="76" height="100" viewBox="0 0 76 100" fill="none" xmlns="http://www.w3.org/2000/svg">
<path d="M46.0869 70.14C45.3269 68.18 44.6469 66.64 44.0469 65.52C43.4469 64.36 42.7269 63.44 41.8869 62.76C41.0869 62.08 39.9669 61.46 38.5269 60.9C37.1269 60.34 35.2469 59.68 32.8869 58.92C30.8869 58.28 29.0269 57.62 27.3069 56.94C25.5869 56.22 24.2069 55.46 23.1669 54.66C22.1269 53.86 21.6069 53 21.6069 52.08C21.6069 51.28 22.1269 50.62 23.1669 50.1C24.2069 49.58 25.5269 49.32 27.1269 49.32C28.9269 49.32 30.7869 49.6 32.7069 50.16C34.6669 50.72 36.4669 51.5 38.1069 52.5C39.7869 53.5 41.0869 54.64 42.0069 55.92L40.9869 55.62C40.9869 54.22 41.2269 52.76 41.7069 51.24C42.1869 49.72 42.8269 48.26 43.6269 46.86C44.4269 45.46 45.3069 44.2 46.2669 43.08C47.2669 41.96 48.2869 41.08 49.3269 40.44C50.4069 39.76 51.4269 39.42 52.3869 39.42C53.7069 39.42 54.3669 40.18 54.3669 41.7C54.3669 43.38 54.0069 45.12 53.2869 46.92C52.5669 48.72 51.4869 50.6 50.0469 52.56C48.6069 54.52 47.5269 56.34 46.8069 58.02C46.0869 59.7 45.7269 61.24 45.7269 62.64C45.7269 63.2 45.7869 63.84 45.9069 64.56C46.0269 65.28 46.2069 66.06 46.4469 66.9C46.7269 67.74 47.0469 68.66 47.4069 69.66L46.0869 70.14ZM47.0469 72.72L36.7269 46.02L38.3469 45.48L48.4869 72.18L47.0469 72.72ZM34.7469 46.8C33.0669 46.8 31.5269 46.4 30.1269 45.6C28.7669 44.8 27.6869 43.72 26.8869 42.36C26.0869 40.96 25.6869 39.42 25.6869 37.74C25.6869 36.06 26.0869 34.54 26.8869 33.18C27.6869 31.82 28.7669 30.74 30.1269 29.94C31.5269 29.1 33.0669 28.68 34.7469 28.68C36.4269 28.68 37.9469 29.1 39.3069 29.94C40.7069 30.74 41.8069 31.82 42.6069 33.18C43.4069 34.54 43.8069 36.06 43.8069 37.74C43.8069 39.42 43.4069 40.96 42.6069 42.36C41.8069 43.72 40.7069 44.8 39.3069 45.6C37.9469 46.4 36.4269 46.8 34.7469 46.8ZM34.7469 43.68C35.8669 43.68 36.8669 43.42 37.7469 42.9C38.6269 42.34 39.3269 41.62 39.8469 40.74C40.4069 39.82 40.6869 38.82 40.6869 37.74C40.6869 36.62 40.4069 35.62 39.8469 34.74C39.3269 33.86 38.6269 33.16 37.7469 32.64C36.8669 32.08 35.8669 31.8 34.7469 31.8C33.6669 31.8 32.6669 32.08 31.7469 32.64C30.8669 33.16 30.1469 33.86 29.5869 34.74C29.0669 35.62 28.8069 36.62 28.8069 37.74C28.8069 38.82 29.0669 39.82 29.5869 40.74C30.1469 41.62 30.8669 42.34 31.7469 42.9C32.6669 43.42 33.6669 43.68 34.7469 43.68Z" fill="black"/>
</svg>
