<svg width="75" height="100" viewBox="0 0 75 100" fill="none" xmlns="http://www.w3.org/2000/svg">
<path d="M27.5875 71.88C23.3875 71.88 19.2475 67.8 19.2475 63.84C19.2475 59.04 23.8675 54.54 27.8875 53.16C26.4475 53.58 25.0675 53.76 23.6875 53.76C18.1075 53.76 13.2475 50.52 13.2475 45.36C13.2475 40.2 16.9675 36.72 21.4075 36.72C24.9475 36.72 29.0275 39 31.4875 42.12C30.1075 40.14 28.9675 37.02 28.9675 33.84C28.9675 29.1 32.2675 25.2 37.3675 25.2C42.3475 25.2 45.6475 28.98 45.6475 33.84C45.6475 36.78 44.6875 39.9 43.1275 42.12L43.3675 41.82C45.9475 38.64 49.5475 36.72 53.3275 36.72C57.6475 36.72 61.4875 40.08 61.4875 45.3C61.4875 50.64 56.2675 53.76 50.9875 53.76C49.1275 53.7 47.6875 53.46 46.7275 53.16C50.8675 54.66 55.4875 58.86 55.4875 63.96C55.4875 67.62 51.5275 71.88 47.0875 71.88C43.1275 71.88 40.1875 69.24 38.5675 65.16C37.7275 63.06 37.3675 61.38 37.3675 60C36.4675 67.38 32.9275 71.88 27.5875 71.88ZM34.0075 43.08L35.9275 42.36C36.2875 41.46 36.4075 40.68 36.4075 40.08C36.4075 39.3 35.9275 37.8 35.9275 37.2C35.9275 36.12 36.4075 35.16 37.3675 35.16C38.3275 35.16 38.8075 36.12 38.8075 37.2C38.8075 37.98 38.2075 39.3 38.2075 40.08C38.2075 40.8 38.3875 41.58 38.6875 42.36L40.6075 43.08C42.2275 41.46 43.2475 38.58 43.2475 35.76C43.2475 31.98 40.8475 29.52 37.3675 29.52C33.8875 29.52 31.3675 31.98 31.3675 35.76C31.3675 38.58 32.3875 41.52 34.0075 43.08ZM25.2475 52.32C26.8675 52.32 28.2475 52.02 29.4475 51.36V49.32C29.0275 48.72 27.8275 48.18 25.8475 48C23.9275 47.82 22.9075 47.22 22.9075 46.2C22.9075 45.3 23.6275 44.94 24.3475 44.94C24.8275 44.94 25.6675 45.18 26.7475 45.84C27.8275 46.5 28.9675 46.8 30.0475 46.8H30.2875L31.4875 45.12C30.2875 42.66 26.6275 39.96 23.0875 39.96C19.7275 39.96 17.3875 42.72 17.3875 46.08C17.3875 49.68 20.5675 52.32 25.2475 52.32ZM49.4275 52.32C54.1075 52.32 57.3475 49.68 57.3475 46.08C57.3475 42.6 54.8875 39.96 51.5875 39.96C47.9275 39.96 44.2675 42.72 43.1275 45.12L44.4475 46.8H44.6875L45.1675 46.74C46.1275 46.62 47.0875 46.44 48.0475 45.84C49.0075 45.24 49.7275 44.94 50.2675 44.94C51.2275 44.94 51.7075 45.36 51.7075 46.26C51.7075 47.28 50.9275 47.82 49.3675 47.88C47.8075 47.94 46.4275 48.42 45.2875 49.32L45.1675 51.36C46.3675 52.02 47.7475 52.32 49.4275 52.32ZM28.5475 68.04C32.5675 68.04 35.6275 62.64 35.6275 58.92V58.32L35.5675 57.84L33.6475 57.24C32.2675 58.08 31.3675 59.22 31.0075 60.54C30.6475 61.92 29.9875 62.58 29.0275 62.58C28.3075 62.58 27.7075 61.86 27.7075 61.2C27.7075 60.36 28.2475 59.64 29.2675 58.92C30.2875 58.2 31.0075 57.12 31.3675 55.68L30.2875 54C27.1075 54.6 22.4275 58.02 22.4275 62.16C22.4275 65.28 25.4875 68.04 28.5475 68.04ZM45.8275 68.04C48.9475 68.04 51.9475 65.22 51.9475 62.16C51.9475 57.96 47.3275 54.72 44.0875 54L43.0075 55.68C43.3075 57.06 44.0275 58.08 45.0475 58.92C46.0675 59.76 46.6075 60.54 46.6075 61.32C46.6075 61.98 46.0075 62.58 45.3475 62.58C44.5075 62.58 43.7875 61.92 43.3075 60.54C42.8275 59.22 41.9275 58.14 40.7275 57.24L38.8075 57.84L38.7475 58.32V58.92C38.7475 61.14 40.1875 64.86 42.3475 66.66C43.4275 67.56 44.5675 68.04 45.8275 68.04Z" fill="white"/>
</svg>
