<svg width="76" height="100" viewBox="0 0 76 100" fill="none" xmlns="http://www.w3.org/2000/svg">
<path d="M39.7678 11.2322C38.7915 10.2559 37.2085 10.2559 36.2322 11.2322L20.3223 27.1421C19.346 28.1184 19.346 29.7014 20.3223 30.6777C21.2986 31.654 22.8816 31.654 23.8579 30.6777L38 16.5355L52.1421 30.6777C53.1184 31.654 54.7014 31.654 55.6777 30.6777C56.654 29.7014 56.654 28.1184 55.6777 27.1421L39.7678 11.2322ZM35.5 13V15H40.5V13H35.5Z" fill="black"/>
<path d="M39.7678 26.2322C38.7915 25.2559 37.2085 25.2559 36.2322 26.2322L20.3223 42.1421C19.346 43.1184 19.346 44.7014 20.3223 45.6777C21.2986 46.654 22.8816 46.654 23.8579 45.6777L38 31.5355L52.1421 45.6777C53.1184 46.654 54.7014 46.654 55.6777 45.6777C56.654 44.7014 56.654 43.1184 55.6777 42.1421L39.7678 26.2322ZM35.5 28V29H40.5V28H35.5Z" fill="black"/>
<path d="M39.7678 40.2322C38.7915 39.2559 37.2085 39.2559 36.2322 40.2322L20.3223 56.1421C19.346 57.1184 19.346 58.7014 20.3223 59.6777C21.2986 60.654 22.8816 60.654 23.8579 59.6777L38 45.5355L52.1421 59.6777C53.1184 60.654 54.7014 60.654 55.6777 59.6777C56.654 58.7014 56.654 57.1184 55.6777 56.1421L39.7678 40.2322ZM35.5 42V90H40.5V42H35.5Z" fill="black"/>
</svg>
