<svg width="76" height="100" viewBox="0 0 76 100" fill="none" xmlns="http://www.w3.org/2000/svg">
<path d="M36.803 69C34.703 63.72 33.023 60.72 25.643 50.58C20.903 44.1 19.103 39.84 19.103 35.46C19.103 30.18 23.663 25.86 28.943 25.86C32.663 25.86 36.083 27.78 38.183 31.68C40.343 27.78 43.763 25.86 47.543 25.86C52.703 25.86 57.383 30.18 57.383 35.46C57.383 39.72 55.883 43.74 50.843 50.64C43.403 60.84 41.603 64.02 39.623 69H36.803ZM38.183 63.78C39.683 60.72 42.323 56.7 45.863 51.84C49.403 46.98 51.623 43.44 52.583 41.34C53.543 39.24 54.023 37.26 54.023 35.46C54.023 32.04 51.023 29.22 47.543 29.22C44.063 29.22 41.123 32.22 39.743 37.2H36.683C35.183 31.8 32.243 29.22 28.943 29.22C25.523 29.22 22.463 32.04 22.463 35.46C22.463 37.2 22.943 39.12 23.843 41.22C24.743 43.32 26.963 46.74 30.443 51.48C33.923 56.16 36.503 60.3 38.183 63.78Z" fill="black"/>
</svg>
