<svg width="20" height="20" viewBox="0 0 20 20" fill="none" xmlns="http://www.w3.org/2000/svg">
<path d="M7.048 17C7.048 15.83 7.39 14.768 7.75 14.264C7.93 14.012 8.326 13.562 8.974 12.914C9.748 12.14 10.036 11.726 10.036 11.222C10.036 11.132 10.018 10.97 10 10.898H9.928C9.892 11.096 9.55 11.546 9.064 11.69C8.83 11.762 8.434 11.816 7.876 11.87C7.588 12.068 7.264 12.392 6.904 12.878C6.544 13.346 6.22 13.58 5.932 13.58C5.302 13.58 4.924 13.454 4.69 13.076L3.88 11.798C4.042 11.492 4.222 11.006 4.438 10.394C4.654 9.764 4.888 9.332 5.086 9.08C5.284 8.828 5.464 8.432 5.608 7.91C5.896 6.866 6.022 6.506 7.03 5.948C7.138 5.606 7.192 5.228 7.192 4.85C7.192 4.472 7.138 4.094 7.048 3.716H7.48C8.11 3.95 8.506 4.382 8.632 4.976H8.74C8.83 4.76 8.884 4.148 8.884 3.806C8.884 3.59 8.866 3.356 8.848 3.194H9.478C10.198 3.59 10.666 4.436 10.666 5.354C12.88 5.984 14.932 8.216 15.616 11.528C15.958 13.184 16.12 14.948 16.12 16.838V17H7.048ZM8.074 16.028H15.004V15.542C15.004 9.188 12.556 6.488 9.838 5.714C9.874 5.48 9.892 5.282 9.892 5.084C9.892 4.598 9.712 4.166 9.352 3.806C9.37 3.932 9.37 4.04 9.37 4.166C9.37 4.778 9.19 5.444 8.974 5.714H8.146V5.534C8.146 4.958 8.038 4.706 7.66 4.4C7.714 4.598 7.732 4.814 7.732 5.084C7.732 5.786 7.552 6.398 7.39 6.524C7.318 6.578 7.156 6.704 6.94 6.884C6.58 7.19 6.436 7.604 6.13 8.558C6.04 8.846 5.914 9.062 5.752 9.242C5.608 9.404 5.392 9.818 5.176 10.412C4.96 11.006 4.78 11.456 4.654 11.672L4.816 11.978C5.266 12.824 5.302 12.86 5.932 12.86C6.166 12.86 6.382 12.788 6.706 12.302C6.922 11.996 7.39 11.51 7.642 11.294C7.732 11.294 8.722 11.096 9.064 10.97C9.406 10.844 9.64 10.52 9.658 10.34H10.504L10.774 11.312C10.738 11.762 10.612 12.176 10.36 12.464L9.622 13.274C8.56 14.426 8.074 15.038 8.074 15.956V16.028ZM13.348 15.794C13.438 15.128 13.474 14.336 13.474 13.436C13.474 9.746 12.718 8.396 11.224 7.136L11.386 7.028C12.502 7.73 13.726 9.224 14.194 11.762C14.428 13.04 14.536 14.372 14.536 15.794H13.348ZM7.444 8.108C7.156 8.108 6.976 8.072 6.886 8L6.868 7.928V7.802C6.868 7.55 7.138 7.388 7.534 7.388C7.678 7.388 7.84 7.424 7.984 7.46L8.488 7.604V7.766L8.344 7.748C8.164 7.748 8.02 7.82 7.894 7.928C7.768 8.036 7.606 8.108 7.444 8.108ZM5.644 11.978C5.5 11.96 5.248 11.78 5.158 11.582C5.284 11.078 5.716 10.754 6.382 10.718L6.454 10.808C5.968 11.15 5.716 11.654 5.644 11.978Z" fill="white"/>
</svg>
